<?xml version="1.0" standalone="no"?>
<!DOCTYPE svg PUBLIC "-//W3C//DTD SVG 1.1//EN" "http://www.w3.org/Graphics/SVG/1.1/DTD/svg11.dtd" >
<svg>
<metadata>
Created by FontForge 20090914 at Mon Oct 12 08:41:09 2015
 By www-data
Copyright (c) ShyFonts Type Foundry, 2000. All rights reserved.
</metadata>
<defs>
<font id="SFComicScriptExtended" horiz-adv-x="1278" >
  <font-face 
    font-family="SF Comic Script Extended"
    font-weight="400"
    font-stretch="normal"
    units-per-em="2048"
    panose-1="2 0 5 3 0 0 0 2 0 4"
    ascent="1638"
    descent="-410"
    x-height="1452"
    cap-height="1452"
    bbox="2 -287.998 3092 1932.71"
    underline-thickness="20"
    underline-position="-123"
    unicode-range="U+0020-U+2122"
  />
<missing-glyph horiz-adv-x="1024" 
 />
    <glyph glyph-name=".notdef" horiz-adv-x="1024" 
 />
    <glyph glyph-name="space" unicode=" " horiz-adv-x="678" 
 />
    <glyph glyph-name="exclam" unicode="!" horiz-adv-x="836" 
d="M947 1437c-87.333 -246 -176 -525.333 -266 -838l-225 -19c48.667 268.667 110.667 551 186 847zM655 353c-8.66699 -36 -30.999 -67.168 -66.999 -93.501s-75.667 -41.833 -119 -46.5c-44 -3.33301 -77.667 5.83398 -101 27.501s-30.666 50.167 -21.999 85.5
c9.33301 36.667 32.5 68.334 69.5 95.001s77.167 41.667 120.5 45c43.333 4.66699 76.666 -3.83301 99.999 -25.5s29.666 -50.834 18.999 -87.501z" />
    <glyph glyph-name="quotedbl" unicode="&#x22;" horiz-adv-x="1213" 
d="M1314 1260l-350 -156l19 70l85 72l-73 5l56 195l308 17zM915 1241l-352 -156l21 70l85 74l-73 3l56 195l307 17z" />
    <glyph glyph-name="numbersign" unicode="#" horiz-adv-x="1444" 
d="M1359 870l-169 -10l-33 -119l-193 1l29 106l-143 -10l-31 -116l-198 -3l28 105l-139 -8l29 167l156 10l37 140l-159 -10l43 157l159 12l39 150l198 4l-36 -139l142 9l43 159l192 -4l-39 -142l161 12l-67 -158l-137 -11l-39 -145l154 11zM1038 1015l37 144l-141 -10
l-38 -144z" />
    <glyph glyph-name="dollar" unicode="$" horiz-adv-x="1509" 
d="M1737 1490l-140 -353l-549 -26c-22.667 -1.33301 -45.667 -11.666 -69 -30.999s-38 -39 -44 -59c-12.667 -46 15.333 -108.667 84 -188c125.333 -149.333 203.833 -247 235.5 -293s36.834 -108.333 15.501 -187c-30.667 -117.333 -116 -215.666 -256 -294.999
c-11.333 -66 -22.666 -119 -33.999 -159c-11.333 -46.667 -26.333 -91.667 -45 -135l-397 -34c15.333 35.333 31 83.333 47 144l9 34c-112.667 -25.333 -258.334 -45.333 -437.001 -60l-5 -2l41 354c103.333 13.333 175 23.333 215 30
c87.333 15.333 160.666 33.666 219.999 54.999c37.333 13.333 64.833 26.666 82.5 39.999s30.167 34 37.5 62c5.33301 23.333 -20.334 71.666 -77.001 144.999c-78.667 104 -131 179.333 -157 226c-50 98 -64.333 186 -43 264c19.333 75.333 66.833 150.333 142.5 225
s160.167 129.334 253.5 164.001c40.667 16 81.667 28.667 123 38l99 244l399 36l-89 -242c76.667 3.33301 189.334 4.33301 338.001 3z" />
    <glyph glyph-name="percent" unicode="%" horiz-adv-x="1923" 
d="M1763 335c-22.667 -89.333 -85.166 -169.501 -187.499 -240.501s-208.833 -111.5 -319.5 -121.5c-114.667 -10.667 -202.834 15.833 -264.501 79.5s-79.167 144.5 -52.5 242.5c3.33301 11.333 9 26.666 17 45.999l-347 -414l-271 -17l771 950
c-100 -69.333 -204 -109 -312 -119c-116 -10.667 -204.667 15.833 -266 79.5s-79 144.5 -53 242.5c24.667 96.667 86.334 184 185.001 262s207 122 325 132c165.333 14 270 -37.667 314 -155l-27 -12c40 -52 48.333 -116.667 25 -194l340 418l249 -51l-739 -888
c93.333 66 192.333 103.667 297 113c167.333 14.667 272.666 -36.666 315.999 -153.999l-27 -12c37.333 -51.333 46.333 -113.666 27 -186.999zM1048 1097c14.667 56 -3.66797 92.999 -55.001 110.999l34 16c-23.333 18 -55.666 25.333 -96.999 22
c-45.333 -3.33301 -87 -21 -125 -53s-62.333 -68 -73 -108c-10 -38.667 -4.16699 -71.667 17.5 -99s55.834 -38.666 102.501 -33.999c42.667 3.33301 83.667 19.5 123 48.5s63.666 61.167 72.999 96.5zM1509 328.998c13.333 56 -4.33301 93 -53 111l32 16
c-21.333 18 -53 25.333 -95 22c-46.667 -3.33301 -88.834 -21 -126.501 -53s-62.167 -68 -73.5 -108c-10 -38.667 -4 -71.667 18 -99s56.333 -39 103 -35c42 4 82.333 20.5 121 49.5s63.334 61.167 74.001 96.5z" />
    <glyph glyph-name="ampersand" unicode="&#x26;" horiz-adv-x="1944" 
d="M1662 70c-227.333 -56 -478.666 -95.667 -753.999 -119c-180 -16 -326.667 2.66699 -440 56c-139.333 64.667 -190 165.334 -152 302.001c39.333 148.667 170.666 277.667 393.999 387c-172 94.667 -237.333 217.667 -196 369c63.333 238.667 329.333 378.667 798 420
c96.667 8.66699 267.334 15.334 512.001 20.001c93.333 1.33301 164 -0.333984 212 -5.00098l-150 -290c-144.667 19.333 -334 18.666 -568 -2.00098c-254 -22.667 -394.667 -85 -422 -187c-14.667 -56 42.666 -100.667 171.999 -134c102.667 -26.667 199 -38 289 -34
l25 125l314 -44l-112 -625c32 4.66699 63.333 11 94 19zM1227 258l85.001 363c-60 -2 -101.333 -4.33301 -124 -7c-103.333 -8.66699 -198.333 -31.334 -285 -68.001c-114 -48 -180.667 -109.333 -200 -184c-16 -57.333 18.667 -96.666 104 -117.999
c67.333 -18 140.666 -23.667 219.999 -17c32 2 98.667 12.333 200 31z" />
    <glyph glyph-name="quotesingle" unicode="'" horiz-adv-x="749" 
d="M923 1225l-348 -155l19 70l85 72l-73 5l56 194l307 17z" />
    <glyph glyph-name="parenleft" unicode="(" horiz-adv-x="1108" 
d="M898 -84l-413.002 -105c-100 137.333 -158.667 276 -176 416c-18 134 -1.66699 298.333 49 493c46.667 172 116.334 329 209.001 471c92 138 220 282.667 384 434l384 -21c-302.667 -260.667 -492.667 -536 -570 -826c-49.333 -185.333 -64.666 -342.333 -45.999 -471
c19.333 -138.667 79 -269 179 -391z" />
    <glyph glyph-name="parenright" unicode=")" horiz-adv-x="1106" 
d="M1114 787c-50.667 -194.667 -121.666 -363.666 -212.999 -506.999c-96.667 -150 -234.334 -306.333 -413.001 -469l-380 35c174 147.333 309.333 295.333 406 444c90 138 159.333 299.667 208 485c77.333 288.667 29.666 543 -143.001 763l414 90
c88.667 -128.667 142.334 -257.334 161.001 -386.001c20 -132 6.66699 -283.667 -40 -455z" />
    <glyph glyph-name="asterisk" unicode="*" horiz-adv-x="1338" 
d="M1439 983l-396 -41l239 -218l-316 -193l-102 269l-262 -303l-238 114l375 304l-377 -45l106 258l361 -43l57 352l348 41l-159 -367l365 111z" />
    <glyph glyph-name="plus" unicode="+" horiz-adv-x="1079" 
d="M1140 672l-317 -17l-45 -210l-256 -8l45 201l-267 -13l26 216l290 17l46 215l256 9l-48 -210l294 17z" />
    <glyph glyph-name="comma" unicode="," horiz-adv-x="749" 
d="M657 229l-350 -156l19 70l85 72l-71 5l56 195l309 17z" />
    <glyph glyph-name="hyphen" unicode="-" horiz-adv-x="1302" 
d="M1244 910l-75 -228.998c-242 -38.667 -493 -69.334 -753 -92.001l94 239c290 27.333 534.667 54.666 734 81.999z" />
    <glyph glyph-name="period" unicode="." horiz-adv-x="799" 
d="M671 375c-11.333 -42 -39.167 -78.832 -83.5 -110.499s-92.166 -49.834 -143.499 -54.501s-92.166 5.83301 -122.499 31.5s-39.5 59.5 -27.5 101.5c11.333 40.667 39.666 77 84.999 109s93.666 50.333 144.999 55s91.5 -5.83301 120.5 -31.5s37.833 -59.167 26.5 -100.5z
" />
    <glyph glyph-name="slash" unicode="/" horiz-adv-x="1103" 
d="M1430 1572c-187.333 -290 -382.334 -611.333 -585.001 -964c-178.667 -307.333 -326.667 -580 -444 -818l-363 51c132.667 268.667 289 559 469 871c204.667 356 395.334 666.667 572.001 932z" />
    <glyph glyph-name="zero" unicode="0" horiz-adv-x="1792" 
d="M1731 701c-48 -177.333 -150.667 -339.335 -308 -486.002c-171.333 -161.333 -360.666 -250.666 -567.999 -267.999c-220.667 -19.333 -370.334 52.334 -449.001 215.001c-67.333 138 -75.333 304 -24 498c52.667 192.667 145.334 364 278.001 514
c164 185.333 353 287.333 567 306c154.667 13.333 280.167 -10.167 376.5 -70.5s151.166 -149.5 164.499 -267.5l-73 -48c66 -104.667 78 -235.667 36 -393zM1360 658.998c27.333 100 18.332 183.665 -27.001 250.998l99 66c-4.66699 59.333 -32.334 105.5 -83.001 138.5
s-114.667 46.167 -192 39.5c-191.333 -17.333 -327.333 -179.666 -408 -486.999c-79.333 -295.333 -19.666 -434.666 179.001 -417.999c108.667 9.33301 205 60 289 152c70.667 76 118.334 162 143.001 258z" />
    <glyph glyph-name="one" unicode="1" horiz-adv-x="1359" 
d="M1125 -31c-138 -6.66699 -281.001 -16.667 -429.001 -30c-144 -12.667 -267.333 -26 -370 -40l72 273l193 17c20 90 96.667 389.333 230 898c-64 -30.667 -154.333 -63.667 -271 -99l-108 222c208 78.667 410 163 606 253l254 5l-66 -241
c-93.333 -350.667 -176.666 -688 -249.999 -1012l209 19z" />
    <glyph glyph-name="two" unicode="2" horiz-adv-x="1727" 
d="M1543 280l-80.0029 -280c-167.333 -19.333 -352.333 -38 -555 -56c-199.333 -17.333 -423 -34.666 -671 -51.999l720 750l256 257c52.667 56 82.334 99.333 89.001 130c14.667 52.667 0.666992 92.667 -42 120c-40 26 -92.333 36 -157 30
c-68.667 -5.33301 -132 -26.5 -190 -63.5s-101.333 -83.833 -130 -140.5l-367 -26c54.667 137.333 154.834 255.5 300.501 354.5s301.167 156.167 466.5 171.5c166 13.333 299 -17 399 -91c103.333 -79.333 137.333 -186.333 102 -321c-18 -66 -52.667 -132.333 -104 -199
c-31.333 -41.333 -87.666 -103.333 -168.999 -186c-190.667 -196 -330.334 -344.667 -419.001 -446c56.667 3.33301 133.334 9 230.001 17c110.667 9.33301 217.667 19.666 321 30.999z" />
    <glyph glyph-name="three" unicode="3" horiz-adv-x="1751" 
d="M1645 531c-40 -146.667 -139.83 -278.669 -299.497 -396.002s-329.834 -184 -510.501 -200c-167.333 -13.333 -303 17 -407 91c-110 80.667 -147 188 -111 322l372 39c-6.66699 -53.333 12.166 -94.166 56.499 -122.499s100.166 -39.833 167.499 -34.5
c75.333 7.33301 148 34.833 218 82.5s113.333 101.5 130 161.5c36.667 141.333 -81 200 -353 176c-21.333 -2 -48.666 -4.33301 -81.999 -7c-42 -5.33301 -68.667 -8 -80 -8l428 546l-647 -49l79 291l1244 94l-464 -572c112.667 -21.333 191.167 -68.666 235.5 -141.999
s52.166 -164 23.499 -272z" />
    <glyph glyph-name="four" unicode="4" horiz-adv-x="1888" 
d="M1635 203l-195 -17.001l-56 -227l-408 -31l60 226c-111.333 -11.333 -233 -23 -365 -35c-135.333 -12 -268 -22.667 -398 -32l67 244l522 587c201.333 220.667 384.333 412.334 549 575.001l391 14c-145.333 -507.333 -221.333 -775.333 -228 -804l-55 -208l189 15z
M1248 921.999l-414.999 -487c61.333 0 114.666 2.33301 159.999 7c42 3.33301 84.333 9 127 17z" />
    <glyph glyph-name="five" unicode="5" horiz-adv-x="1703" 
d="M1597 527c-39.333 -148 -139.002 -280.164 -299.002 -396.497s-330.333 -182.5 -511 -198.5c-167.333 -14.667 -302.666 14.666 -405.999 87.999c-110.667 81.333 -147.667 189.666 -111 324.999l372 39c-7.33301 -53.333 12 -95 58 -125
c43.333 -28 98.333 -38.667 165 -32c75.333 6 148 33.167 218 81.5s113.333 102.5 130 162.5c15.333 60 1.33301 107.167 -42 141.5s-103 48.166 -179 41.499c-120 -10.667 -218 -61.334 -294 -152.001l-312 75c62.667 127.333 142.334 281.333 239.001 462
c92 174 168 309.667 228 407c123.333 -4 324.666 6.66699 603.999 32c26.667 2 80.334 5.33301 161.001 10c64.667 4.66699 118 9.33398 160 14.001l-143 -285l-558 -31c-68 -109.333 -114 -197 -138 -263c56.667 12.667 113 22 169 28c182 16 318 -13 408 -87
c92.667 -76.667 119.667 -189 81 -337z" />
    <glyph glyph-name="six" unicode="6" horiz-adv-x="1625" 
d="M1580 526c-38.667 -147.333 -137.334 -278.167 -296.001 -392.5s-326.667 -178.833 -504 -193.5c-176.667 -16 -317.667 16.667 -423 98c-107.333 85.333 -142 200 -104 344c16.667 58 77.334 154.333 182.001 289l633 793l398 34l-442 -551
c196 17.333 345.667 -7.66699 449 -75c114 -74 149.667 -189.333 107 -346zM1188 472.999c14.667 58 -0.832031 105.5 -46.499 142.5s-104.834 52.5 -177.501 46.5c-70.667 -6.66699 -141.167 -33.667 -211.5 -81s-112.833 -100.333 -127.5 -159
c-16 -62.667 -0.333008 -111.667 47 -147c44.667 -34 105.667 -47.667 183 -41c74 6.66699 144 33 210 79s107 99.333 123 160z" />
    <glyph glyph-name="seven" unicode="7" horiz-adv-x="1533" 
d="M1814 1504c-180.667 -232.667 -379 -515.001 -595 -847.001c-183.333 -283.333 -329 -530.666 -437 -741.999l-415 18c74 147.333 195.667 357.333 365 630l184 299c74 112.667 143 211 207 295c-140 -6.66699 -349.333 -15.667 -628 -27l78 290
c518 24 931.667 52 1241 84z" />
    <glyph glyph-name="eight" unicode="8" horiz-adv-x="1765" 
d="M1630 456c-36.667 -138 -138.999 -256.331 -306.999 -354.998c-151.333 -88.667 -313 -140.667 -485 -156c-169.333 -14.667 -308.666 10 -417.999 74c-119.333 72.667 -161.333 175.667 -126 309c45.333 169.333 165.333 304.666 360 405.999
c-107.333 67.333 -142 169 -104 305c32.667 122 127 226.333 283 313c133.333 72.667 277.666 115.667 432.999 129c194.667 17.333 338.667 -27.334 432 -134.001l-48 -33c91.333 -50 121.666 -131.333 90.999 -244c-28.667 -109.333 -105.667 -199.333 -231 -270
c120 -79.333 160 -194 120 -344zM1353 995.002c16 56.667 -2.00098 96 -54.001 118l51 34c-37.333 34 -90.666 47.667 -159.999 41c-64 -4.66699 -124 -25.334 -180 -62.001c-62.667 -38.667 -100.667 -83.5 -114 -134.5s-0.5 -91.667 38.5 -122s90.5 -43.166 154.5 -38.499
c59.333 6 113.333 22.667 162 50c56.667 30.667 90.667 68.667 102 114zM1244 440.002c16 58 -2.00098 102.33 -54.001 132.997c-48 28.667 -108.333 40.334 -181 35.001c-74 -7.33301 -141.667 -30.333 -203 -69c-72 -40.667 -115.333 -90.667 -130 -150
c-16 -56.667 2.66699 -101 56 -133c46.667 -29.333 106.5 -40.666 179.5 -33.999s141.167 29.334 204.5 68.001c70.667 41.333 113.334 91.333 128.001 150z" />
    <glyph glyph-name="nine" unicode="9" horiz-adv-x="1649" 
d="M1741 986c-22 -82.667 -87.333 -176.331 -196 -280.998l-842 -797l-432 -12l599 570c-155.333 3.33301 -275.333 45 -360 125c-90 85.333 -117.667 192.666 -83 321.999c38.667 146 141.667 274 309 384c159.333 106 328 167 506 183c240.667 20 405.667 -45 495 -195
l-35 -24c56.667 -70.667 69.667 -162.334 39 -275.001zM1353 966.003c15.333 56.667 -0.00195312 100 -46.002 130l53 36c-43.333 44 -108.666 62 -195.999 54c-77.333 -6.66699 -152 -31.667 -224 -75c-77.333 -48.667 -124 -104 -140 -166
c-18 -65.333 -3.66699 -115.333 43 -150c44.667 -34 107.334 -47.667 188.001 -41c74 7.33301 140.667 29 200 65c65.333 40 106 89 122 147z" />
    <glyph glyph-name="colon" unicode=":" horiz-adv-x="835" 
d="M869 1046c-11.333 -42 -39.501 -79.001 -84.501 -111.001s-93.167 -50 -144.5 -54c-50 -4.66699 -90.167 5.5 -120.5 30.5s-40.166 58.5 -29.499 100.5c11.333 40.667 40 77.334 86 110.001s94.667 50.667 146 54c50 4.66699 89.5 -5.5 118.5 -30.5
s38.5 -58.167 28.5 -99.5zM687.999 376.999c-11.333 -42 -39.166 -79.002 -83.499 -111.002s-92.166 -50.167 -143.499 -54.5s-92 6.33398 -122 32.001s-39.333 59.5 -28 101.5c11.333 40.667 39.666 77 84.999 109s93.666 50.167 144.999 54.5s91.5 -6.16699 120.5 -31.5
s37.833 -58.666 26.5 -99.999z" />
    <glyph glyph-name="semicolon" unicode=";" horiz-adv-x="746" 
d="M857 1044c-11.333 -42 -39.5 -78.832 -84.5 -110.499s-92.5 -49.834 -142.5 -54.501c-51.333 -4.66699 -92 5.83301 -122 31.5s-40 59.5 -30 101.5c11.333 40.667 40 77 86 109s94.667 50.333 146 55c50 4.66699 89.5 -5.83301 118.5 -31.5s38.5 -59.167 28.5 -100.5z
M611 225.001l-352 -157l23 72l82 72l-70 3l54 196l311 17z" />
    <glyph glyph-name="less" unicode="&#x3c;" horiz-adv-x="1022" 
d="M857 309l-398 -34l-145 442l379 490l394 13l-377 -474z" />
    <glyph glyph-name="equal" unicode="=" horiz-adv-x="1306" 
d="M1285 1067l-71.998 -210c-161.333 -36.667 -335.333 -63 -522 -79c-70.667 -5.33301 -146.334 -10.333 -227.001 -15l87 222c96 6.66699 163.333 11.667 202 15c155.333 14 332.666 36.333 531.999 67zM1196 734l-75.999 -223.998
c-170.667 -16.667 -426.667 -44.334 -768 -83.001l111 225c303.333 29.333 547.666 56.666 732.999 81.999z" />
    <glyph glyph-name="greater" unicode="&#x3e;" horiz-adv-x="1027" 
d="M1082 783l-393 -488l-397 -34l394 483l-136 430l399 34z" />
    <glyph glyph-name="question" unicode="?" horiz-adv-x="1505" 
d="M1545 1147c-59.333 -223.333 -302.002 -353.666 -728.002 -390.999l-51 -160l-271 -16l118 367c186.667 22 302.667 34.667 348 38c56.667 5.33301 108.334 19.333 155.001 42c56.667 28.667 91 64.667 103 108c23.333 87.333 -64 122.666 -262 105.999
c-158.667 -14.667 -280.667 -32.334 -366 -53.001l15 218c86.667 19.333 195.334 34.666 326.001 45.999l106 9c164.667 14.667 293.667 0.333984 387 -42.999c114 -53.333 154 -143.666 120 -270.999zM716.998 358c-10.667 -36 -32.999 -67.1699 -66.999 -93.5029
s-73.667 -41.166 -119 -44.499c-44.667 -4.66699 -78.667 3.83301 -102 25.5s-30.333 50.834 -21 87.501c9.33301 35.333 32.166 66.333 68.499 93s76.5 42.334 120.5 47.001c46 3.33301 80 -5.5 102 -26.5s28 -50.5 18 -88.5z" />
    <glyph glyph-name="at" unicode="@" horiz-adv-x="1773" 
d="M1746 829c-41.333 -150 -143.5 -283.501 -306.5 -400.501s-336.167 -183.5 -519.5 -199.5c-186.667 -17.333 -331.5 23.834 -434.5 123.501s-133.5 227.5 -91.5 383.5c43.333 160 147.5 300.333 312.5 421s345.5 189.667 541.5 207c235.333 20 399 -47.667 491 -203
l-37 -21c61.333 -84 76 -187.667 44 -311zM1533 813.999c26 96.667 9.33105 175.667 -50.002 237l38 21c-65.333 90 -173.666 128.667 -324.999 116c-136 -12.667 -260.667 -60.167 -374 -142.5s-184.666 -179.5 -213.999 -291.5c-28.667 -106.667 -8 -194.667 62 -264
s169.667 -98.333 299 -87c123.333 11.333 241.5 57.333 354.5 138s182.833 171.667 209.5 273zM1263 547.999l-160.001 -14v82c-49.333 4.66699 -105.666 4 -168.999 -2l-43 -99l-161 -15c72 154.667 182.667 364.667 332 630l209 7c-20 -176.667 -22.667 -373 -8 -589z
M1108 724.999c-1.33301 58 2 145.667 10 263c-33.333 -58 -79.333 -146.667 -138 -266c12 2 22.667 3 32 3c29.333 3.33301 61.333 3.33301 96 0z" />
    <glyph glyph-name="A" unicode="A" horiz-adv-x="1439" 
d="M1348 -10l-401.001 -94l5 264c-105.333 14 -220.666 15.333 -345.999 4l-85 -9l-113 -278l-388 -3c184.667 396 458.334 919.333 821.001 1570l524 19c-46.667 -430.667 -52.334 -921.667 -17.001 -1473zM965.999 435c-1.33301 109.333 -2.33301 218.667 -3 328
c2 126 9.66699 236.333 23 331l-344 -669c28 3.33301 53.667 6 77 8c86 7.33301 168.333 8 247 2z" />
    <glyph glyph-name="B" unicode="B" horiz-adv-x="1618" 
d="M1611 422c-37.333 -138 -144.666 -252.333 -321.999 -343c-150.667 -76.667 -315.334 -123 -494.001 -139c-275.333 -24 -517.666 -27.333 -726.999 -10l127 268c28 -2 57 -3 87 -3l309 943c-50.667 -8 -96.334 -17 -137.001 -27l22 280
c70.667 16 145.334 27.333 224.001 34c40.667 3.33301 102.5 9.83301 185.5 19.5s145.5 16.167 187.5 19.5c551.333 48 793.333 -53 726 -303c-38.667 -146 -168.334 -280.333 -389.001 -403c174 -75.333 241 -187.333 201 -336zM1372 1055
c30 109.333 -113.333 150.332 -430 122.999l-97 -9c-14 -1.33301 -49.333 -5.33301 -106 -12l179 -75l-101 -275h6c330 28.667 513 111.334 549 248.001zM1234 407.999c19.333 75.333 -17 128.333 -109 159c-72 21.333 -159.667 27.333 -263 18
c-14 -0.666992 -55.667 -5 -125 -13l-109 -365c100 -1.33301 163.667 -1 191 1c80 6.66699 160.333 26 241 58c101.333 40 159.333 87.333 174 142z" />
    <glyph glyph-name="C" unicode="C" horiz-adv-x="1526" 
d="M1556 481c-71.333 -146.667 -183.168 -270.331 -335.501 -370.998s-316.833 -159 -493.5 -175c-218.667 -19.333 -371 50.667 -457 210c-73.333 138 -84.333 303 -33 495c52.667 193.333 158.667 370.333 318 531c184 182 387.667 282.667 611 302
c294.667 26 481.667 -62.667 561 -266l-360 -156c-53.333 74 -143.666 106 -270.999 96c-126.667 -11.333 -237.667 -74.666 -333 -189.999c-75.333 -89.333 -128.333 -192 -159 -308c-29.333 -108.667 -34.333 -200.334 -15 -275.001c28 -100 99 -145.667 213 -137
c91.333 9.33301 177 42.166 257 98.499s135 123.166 165 200.499z" />
    <glyph glyph-name="D" unicode="D" horiz-adv-x="1555" 
d="M1667 780c-58 -214 -199.499 -405.668 -424.499 -575.001s-467.833 -265.666 -728.5 -288.999l-330 -29c28.667 132 60.667 264 96 396c77.333 289.333 170.666 576 279.999 860c-43.333 -6.66699 -85.666 -15.667 -126.999 -27l21 278c75.333 17.333 150 29.333 224 36
c298.667 26 547 -13.333 745 -118c225.333 -120 306.666 -297.333 243.999 -532zM1302 745.999c38 135.333 -6.33105 240.669 -132.998 316.002c-104.667 63.333 -243.334 95.666 -416.001 96.999l141 -94c-69.333 -143.333 -127.333 -301 -174 -473
c-22.667 -88.667 -50.334 -213.334 -83.001 -374.001c156.667 26.667 298.167 89.667 424.5 189s206.5 212.333 240.5 339z" />
    <glyph glyph-name="E" unicode="E" horiz-adv-x="1425" 
d="M1698 1509l-97.001 -302c-124 -6 -244.667 -14 -362 -24c-98 -9.33301 -198.667 -20.333 -302 -33c-11.333 -34 -23.333 -73 -36 -117c-16.667 -62 -30.334 -124 -41.001 -186c98 12 195.333 22.667 292 32c98 8 195.333 14.333 292 19l-82 -307
c-95.333 -1.33301 -192.666 -6.66602 -291.999 -15.999c-96.667 -8 -194.334 -20 -293.001 -36c-22 -52 -39.833 -103.667 -53.5 -155s-23.167 -102 -28.5 -152c112.667 14.667 224 26.667 334 36c110.667 10 220 17.333 328 22l-80 -307c-176.667 -8 -353 -20 -529 -36
c-175.333 -14.667 -353.666 -33.334 -534.999 -56.001c48 225.333 100 441.333 156 648c52 194.667 110.333 392.667 175 594l-158 -7l68 284c304 16 572 34 804 54c136.667 11.333 283.334 26.333 440.001 45z" />
    <glyph glyph-name="F" unicode="F" horiz-adv-x="1364" 
d="M1698 1509l-97.0029 -302c-90 -4 -186.333 -10.333 -289 -19l-182 -17c-67.333 -6 -131.666 -13 -192.999 -21c-14.667 -37.333 -27.334 -75.333 -38.001 -114c-11.333 -48 -24.333 -111 -39 -189c98 12 195.333 22.667 292 32c98 8 195.333 14.333 292 19l-82 -307
c-95.333 -1.33301 -192.666 -6.66602 -291.999 -15.999c-96.667 -8 -194.334 -20 -293.001 -36c-33.333 -97.333 -64.666 -200.333 -93.999 -309c-28.667 -106.667 -52 -208.334 -70 -305.001l-400 -34c38.667 190 98.667 435 180 735
c40.667 154.667 89.334 318.667 146.001 492l-162 2l77 290c308 16.667 584 36 828 58c162.667 13.333 301.334 27 416.001 41z" />
    <glyph glyph-name="G" unicode="G" horiz-adv-x="1558" 
d="M1430 -3l-355 -31.001l36 130c-143.333 -96.667 -297 -152.667 -461 -168c-206.667 -18 -342.667 57.333 -408 226c-52 132.667 -52.333 294.667 -1 486c53.333 196 161.333 373.333 324 532c185.333 181.333 391.333 282.333 618 303
c295.333 24.667 485.333 -64.333 570 -267l-338 -222c-36.667 122 -140.334 175.667 -311.001 161c-127.333 -11.333 -238.666 -74 -333.999 -188c-77.333 -90 -131.333 -192.333 -162 -307c-30 -112.667 -33.667 -206.667 -11 -282c30.667 -97.333 107 -140.333 229 -129
c78.667 6.66699 141.667 20.334 189 41.001c112 50 195.667 177.333 251 382c8 32 15.667 66 23 102l370 84z" />
    <glyph glyph-name="H" unicode="H" horiz-adv-x="1517" 
d="M1783 1505c-97.333 -280 -178.999 -543.334 -244.999 -790.001c-64 -238.667 -118 -480 -162 -724l-395 -11l113 512l-468 6c-30.667 -90.667 -58.334 -182 -83.001 -274c-27.333 -101.333 -50.333 -205 -69 -311l-395 -12c24.667 118.667 58 255.334 100 410.001
c102.667 388 214.334 756 335.001 1104l394 15l-191 -613l457 -1l38 138c5.33301 18 24.666 77.333 57.999 178l121 360z" />
    <glyph glyph-name="I" unicode="I" horiz-adv-x="1103" 
d="M966 -53c-145.333 -3.33301 -293.335 -11.333 -444.002 -24c-148 -13.333 -297.667 -31.333 -449 -54l58 271l215 29c31.333 164 68 326.667 110 488c40.667 150 91.667 314 153 492c-46.667 -4 -116 -10.333 -208 -19l84 281c60 7.33301 132 14.333 216 21
c221.333 19.333 443.333 26 666 20l-87 -281c-168.667 0 -337 -4.66699 -505 -14l254 -77c-27.333 -87.333 -54.666 -181 -81.999 -281c-47.333 -178.667 -91.666 -375 -132.999 -589l210 8z" />
    <glyph glyph-name="J" unicode="J" horiz-adv-x="1374" 
d="M1691 1504l-103.997 -298.999c-35.333 -4.66699 -63.666 -8 -84.999 -10c-36.667 -2.66699 -92.834 -6.5 -168.501 -11.5s-133.167 -9.16699 -172.5 -12.5l-52 -5l231 -70c-9.33301 -25.333 -18 -53.333 -26 -84c-16.667 -62.667 -39.334 -157.167 -68.001 -283.5
s-51.334 -221.166 -68.001 -284.499c-51.333 -192.667 -185 -347 -401 -463c-124 -66.667 -246.333 -105.334 -367 -116.001c-170.667 -14.667 -296 17.666 -376 96.999l311 265c34 -21.333 85.667 -29.333 155 -24c111.333 10 184.666 79.333 219.999 208l176 657
c14.667 51.333 5 75.333 -29 72s-92 -8.33301 -174 -15l101 300c195.333 27.333 377.666 48.333 546.999 63c152.667 14 269.334 19.333 350.001 16z" />
    <glyph glyph-name="K" unicode="K" horiz-adv-x="1452" 
d="M1335 -2l-430 -59.002c-20.667 237.333 -109.667 411.333 -267 522c-10 -40 -27.167 -101 -51.5 -183l-54.5 -184c-16.667 -64 -30 -123.667 -40 -179l-400 -36c45.333 246.667 101.666 497.334 168.999 752.001c72.667 270 155.334 531.333 248.001 784l390 13
c-19.333 -61.333 -40.333 -133 -63 -215l-49 -194c-22 -83.333 -38.667 -148.333 -50 -195c290 286 500.667 508 632 666l351 -55l-421 -447c-64 -66 -111.333 -113.667 -142 -143c-53.333 -51.333 -104 -95.666 -152 -132.999c182 -220.667 292 -458.667 330 -714z" />
    <glyph glyph-name="L" unicode="L" horiz-adv-x="1058" 
d="M1080 282l-114.001 -326.001c-111.333 -16 -248.333 -31.333 -411 -46l-125 -11c-118 -10 -230.667 -16.667 -338 -20c49.333 264.667 107 521.667 173 771c70 258.667 150.667 513.667 242 765l394 13c-98.667 -288.667 -180 -552 -244 -790
c-32.667 -127.333 -65 -261.333 -97 -402c85.333 0.666992 171 4.33398 257 11.001c86.667 8 174.334 19.667 263.001 35z" />
    <glyph glyph-name="M" unicode="M" horiz-adv-x="2000" 
d="M2256 1456c-56.667 -68.667 -97.999 -132.335 -123.999 -191.002c-7.33301 -20.667 -21.5 -67.5 -42.5 -140.5l-157.5 -547.5c-66 -225.333 -117.667 -408.666 -155 -549.999l-401 -36l29 111c48.667 183.333 103.667 368.333 165 555l-556 -618l-294 562
c-16.667 -53.333 -33 -108.666 -49 -165.999c-60.667 -227.333 -101.667 -399 -123 -515l-398 -36c53.333 246.667 113.666 494.667 180.999 744c44.667 166 92 332.667 142 500l-62 108l406 206l333 -787l712 878z" />
    <glyph glyph-name="N" unicode="N" horiz-adv-x="1575" 
d="M1452 20l-377 -54l-358 635c-22 -75.333 -38.667 -134 -50 -176c-43.333 -159.333 -84.333 -327.666 -123 -504.999l-397 -36c54.667 246.667 115 494.667 181 744c44 167.333 91 334 141 500l-61 108l406 206l382 -797c19.333 107.333 44 216 74 326
c47.333 177.333 104.666 340.666 171.999 489.999l350 -97c-66 -194 -124 -383 -174 -567c-69.333 -258 -124.666 -517 -165.999 -777z" />
    <glyph glyph-name="O" unicode="O" horiz-adv-x="1597" 
d="M1676 708c-48.667 -184 -158.333 -351.002 -329 -501.002c-183.333 -160.667 -383.666 -250.667 -600.999 -270c-220.667 -19.333 -377.334 49.334 -470.001 206.001c-78 138 -91 303.667 -39 497c53.333 196 161.333 373.333 324 532
c183.333 181.333 389.333 282.333 618 303c296 24.667 486 -64.333 570 -267l-129 -85c82 -111.333 100.667 -249.666 56 -414.999zM1405 1012c-44.667 103.333 -149 147.667 -313 133c-124.667 -10 -233.667 -71.333 -327 -184c-75.333 -88.667 -128.333 -190 -159 -304
c-30.667 -112.667 -33 -207.667 -7 -285c34 -98 113 -141.667 237 -131c112 10 214.333 62.667 307 158c80 83.333 133 174 159 272c27.333 100 16 183.667 -34 251z" />
    <glyph glyph-name="P" unicode="P" horiz-adv-x="1534" 
d="M1756 1079c-8.66699 -30 -19.001 -57 -31.001 -81c-92 -180.667 -238.667 -328.334 -440 -443.001c-183.333 -104 -392 -170 -626 -198l-138 -441l-362 -30l409 1256c-43.333 -6 -87.666 -14.667 -132.999 -26l19 278c76 17.333 150.667 29.333 224 36
c322.667 28.667 566 30.334 730 5.00098c283.333 -43.333 399.333 -162 348 -356zM1326 973c24 86.667 -16.332 143.999 -120.999 171.999c-76 19.333 -175.667 24 -299 14c-30.667 -3.33301 -83.334 -5.66602 -158.001 -6.99902l150 -65l-150 -450
c121.333 11.333 236 44.333 344 99c131.333 66 209.333 145 234 237z" />
    <glyph glyph-name="Q" unicode="Q" horiz-adv-x="1597" 
d="M1686 775c-62.667 -236.667 -191.665 -436.997 -386.998 -600.997c52 -48.667 117.333 -80.334 196 -95.001l-362 -227c-59.333 31.333 -107 77.666 -143 138.999c-83.333 -29.333 -168 -48 -254 -56c-221.333 -19.333 -377.333 50 -468 208
c-78.667 138 -92.334 303 -41.001 495c53.333 197.333 161.333 375.333 324 534c184.667 181.333 390.667 281.666 618 300.999c141.333 12.667 263 -12.333 365 -75c91.333 -56 159 -135.667 203 -239l-76 -51c53.333 -88 61.666 -199 24.999 -333zM1382 981.003
c-58.667 122 -158.669 176.666 -300.002 163.999c-125.333 -11.333 -235.666 -74.333 -330.999 -189c-76 -91.333 -129.333 -193.333 -160 -306c-30 -109.333 -31.333 -202.666 -4 -279.999c34 -100 110.333 -144.667 229 -134c22.667 2 46 6.33301 70 13
c-10.667 50 -22.667 114.333 -36 193l293 189c1.33301 -68 8.33301 -132.667 21 -194c71.333 92 123 196 155 312c18.667 70.667 11.334 128.667 -21.999 174z" />
    <glyph glyph-name="R" unicode="R" horiz-adv-x="1616" 
d="M1498 5l-428.001 -57.999c-24 102.667 -67.333 181.334 -130 236.001c-48.667 45.333 -135 92.333 -259 141c-58 -170.667 -99.667 -299.667 -125 -387l-389 -34c162.667 491.333 305.667 904.333 429 1239c-59.333 -6 -116.333 -15.333 -171 -28l19 280
c86 17.333 195 32.333 327 45c310.667 27.333 543 29 697 5c267.333 -42 375.333 -157 324 -345c-8 -28.667 -17.667 -55.334 -29 -80.001c-124 -250.667 -350 -433.334 -678 -548.001c244.667 -100 382.334 -255.333 413.001 -466zM1364 993.001
c37.333 140 -104.333 196.333 -425 169c-46 -4.66699 -104 -8 -174 -10l162 -79l-142 -416c122.667 11.333 238.667 45 348 101c128.667 64.667 205.667 143 231 235z" />
    <glyph glyph-name="S" unicode="S" horiz-adv-x="1104" 
d="M1410 1469l-113 -329l-304 -34c-22.667 -2 -45.667 -12.833 -69 -32.5s-37.666 -39.167 -42.999 -58.5c-4.66699 -19.333 10 -71.666 44 -156.999c44.667 -114.667 73.667 -198.667 87 -252c29.333 -108 33.333 -199.667 12 -275c-10 -42 -27 -80.667 -51 -116
c-72.667 -109.333 -210 -198 -412 -266c-154.667 -53.333 -317.334 -88 -488.001 -104l41 353c135.333 18 245.666 41.333 330.999 70c68.667 24 108.667 58.667 120 104c10 38.667 -0.333008 105.334 -31 200.001l-89 215c-36 94 -45.667 171.333 -29 232
c19.333 75.333 66.833 149.666 142.5 222.999s160.167 128.666 253.5 165.999c74 28.667 169.667 48 287 58c102.667 9.33301 206.334 10.333 311.001 3z" />
    <glyph glyph-name="T" unicode="T" horiz-adv-x="1340" 
d="M1655 1464l-99.998 -309l-644 -29l219 -75c-80 -237.333 -147.333 -458 -202 -662c-42.667 -164 -81.334 -324.333 -116.001 -481h-387c35.333 195.333 78.666 388.666 129.999 579.999c56.667 212.667 123 423.334 199 632.001l-414 -19l100 309z" />
    <glyph glyph-name="U" unicode="U" horiz-adv-x="1574" 
d="M1626 662c-46.667 -175.333 -150.668 -332.999 -312.001 -472.999c-172 -150 -361.333 -234 -568 -252c-212 -18 -364 45.667 -456 191c-80.667 130 -97 286.333 -49 469l218 814l369 16l-219 -813c-26 -96.667 -24.333 -181.334 5 -254.001
c34.667 -90 106 -129.667 214 -119c105.333 8.66699 196.333 54.667 273 138c62.667 68 106.334 148.667 131.001 242l222 831l389 17z" />
    <glyph glyph-name="V" unicode="V" horiz-adv-x="1434" 
d="M1748 1469c-110.667 -151.333 -248.334 -371.332 -413.001 -659.999c-204 -355.333 -356 -642 -456 -860c-122 6.66699 -242.667 5 -362 -5c-45.333 -3.33301 -93.666 -9 -144.999 -17c-6.66699 178.667 -3.66699 405 9 679c11.333 307.333 30 574.666 56 801.999l374 19
c-48 -418.667 -62.333 -755 -43 -1009c167.333 368.667 358 713 572 1033z" />
    <glyph glyph-name="W" unicode="W" horiz-adv-x="2065" 
d="M2343 1516c-198 -407.333 -416.333 -895.666 -655 -1465c-67.333 0 -132.333 -2.66699 -195 -8c-104.667 -9.33301 -211 -26.666 -319 -51.999c-8.66699 117.333 -16.667 294 -24 530l-286 -574c-115.333 6.66699 -232 5 -350 -5
c-46.667 -3.33301 -90.667 -8.33301 -132 -15c-6.66699 179.333 -3.66699 405.666 9 678.999c11.333 307.333 30 575.333 56 804l377 17c-48.667 -416.667 -63.334 -752.334 -44.001 -1007l169 379c68 146.667 134.667 273 200 379c-2.66699 69.333 -0.666992 137.333 6 204
l398 -13c-30.667 -266.667 -33 -562 -7 -886c20.667 58 91.334 234.333 212.001 529c42 109.333 110.667 272 206 488z" />
    <glyph glyph-name="X" unicode="X" horiz-adv-x="1481" 
d="M1736 1360c-197.333 -164 -418.332 -367.002 -662.999 -609.002c99.333 -288 200.333 -519 303 -693l-425 -104c-50 101.333 -116 250.333 -198 447c-146 -137.333 -289 -304.666 -429 -501.999l-247 108c236.667 286.667 425 503.334 565 650.001
c-98 274 -169.667 490.667 -215 650l447 140c5.33301 -28 46.666 -165 123.999 -411c132 132 297.667 284.333 497 457z" />
    <glyph glyph-name="Y" unicode="Y" horiz-adv-x="1406" 
d="M1720 1440c-179.333 -205.333 -385 -467.334 -617 -786.001c-32 -44.667 -74.667 -110.667 -128 -198c-22 -43.333 -43.333 -103.333 -64 -180c-30.667 -116 -56.667 -228 -78 -336l-393 -13c24 121.333 50.333 234.333 79 339
c27.333 102.667 50.666 181.334 69.999 236.001c-43.333 98.667 -82.666 241.334 -117.999 428.001c-32.667 175.333 -52.667 323.333 -60 444l405 68c8 -94.667 16.333 -188.334 25 -281.001c11.333 -112 34.333 -201 69 -267c150 248 294.333 438 433 570z" />
    <glyph glyph-name="Z" unicode="Z" horiz-adv-x="1417" 
d="M1382 299l-181 -309c-176 -25.333 -350.333 -46 -523 -62c-189.333 -16 -397 -27.333 -623 -34c114.667 165.333 273.667 378.666 477 639.999c-104.667 -11.333 -191.667 -22 -261 -32l81 307c145.333 18 289.666 34 432.999 48l244 297
c-172.667 -12.667 -387.667 -24 -645 -34l159 298c253.333 11.333 502.333 28 747 50c141.333 12.667 280.333 26.334 417 41.001c-176.667 -194.667 -355 -402 -535 -622c46 2.66699 105.333 5.66699 178 9l-80 -307c-94.667 -2.66699 -210.667 -9 -348 -19
c-99.333 -127.333 -188.666 -247.333 -267.999 -360h6c272 24 512.667 53.667 722 89z" />
    <glyph glyph-name="bracketleft" unicode="[" horiz-adv-x="1379" 
d="M1524 1661l-140 -342.001l-362 -22l-111 -408c-74 -272 -135.333 -513.667 -184 -725l387 29l-81 -336l-775 -65c76 375.333 161.333 738.333 256 1089c61.333 229.333 131.666 471 210.999 725c167.333 -1.33301 332 5.33398 494 20.001
c90.667 8 192.334 19.667 305.001 35z" />
    <glyph glyph-name="backslash" unicode="\" horiz-adv-x="1103" 
d="M968 -79l-407 -116.999c6 227.333 1 486.666 -15 777.999c-19.333 333.333 -48.333 635 -87 905l408 138c40 -247.333 70 -538 90 -872c15.333 -296 19 -573.333 11 -832z" />
    <glyph glyph-name="bracketright" unicode="]" horiz-adv-x="1362" 
d="M1297 949c-98 -365.333 -207.665 -730.668 -328.998 -1096l-775 -70l95 338l390 38c71.333 236.667 129.666 441.334 174.999 614.001l75 273l65 249l-370 -42l109 341c99.333 3.33301 184.666 8 255.999 14c164 14.667 326.333 35.667 487 63
c-54 -240 -113.333 -480.667 -178 -722z" />
    <glyph glyph-name="asciicircum" unicode="^" horiz-adv-x="1053" 
d="M1210 1283l-247 -25l-96 65l-142 -81l-257 -13l312 206l229 24z" />
    <glyph glyph-name="underscore" unicode="_" horiz-adv-x="1664" 
d="M1312 -56l-1063 -94l46 176l1064 93z" />
    <glyph glyph-name="grave" unicode="`" horiz-adv-x="802" 
d="M1164 1616l-38 -63l-512 7l46 176z" />
    <glyph glyph-name="a" unicode="a" horiz-adv-x="1172" 
d="M1164 273l-321.001 -27.002l4 164c-83.333 11.333 -174.666 12.333 -273.999 3c-20 -1.33301 -43.333 -3.66602 -70 -6.99902l-85 -198l-317 -27c148.667 318.667 368 737.334 658 1256l420 14c-37.333 -341.333 -42.333 -734 -15 -1178zM856.999 629.998
c0 86 -0.666992 173.001 -2 261.001c2 101.333 9 189.333 21 264c-65.333 -118 -157 -296 -275 -534c22.667 3.33301 43 5.66602 61 6.99902c67.333 6 132.333 6.66699 195 2z" />
    <glyph glyph-name="b" unicode="b" horiz-adv-x="1326" 
d="M1377 611c-29.333 -110.667 -114.997 -202.332 -256.997 -274.999c-120 -60 -251.667 -96.333 -395 -109c-219.333 -19.333 -413.333 -22.333 -582 -9l99 214c25.333 -2.66699 49.333 -4 72 -4l249 768c-40.667 -6.66699 -76.334 -13.334 -107.001 -20.001l18 223
c59.333 14 118.666 23.333 177.999 28l149.5 16l149.5 16c440 38.667 633.333 -42 580 -242c-30.667 -116 -134.334 -224 -311.001 -324c138.667 -60.667 191 -154.667 157 -282zM1190 1132c22.667 86 -91.667 118.334 -343 97.001l-79 -7
c-56 -4.66699 -36 -27.334 60 -68.001l-82 -222h3c112.667 10 198.667 24.667 258 44c102.667 33.333 163.667 85.333 183 156zM1079 613.003c16.667 60 -12.999 102 -88.999 126c-56 18 -125.333 23.667 -208 17c-15.333 -2 -48.333 -5.33301 -99 -10l-92 -309
c78 0 129 1 153 3c61.333 6 125.666 23.667 192.999 53c82 35.333 129.333 75.333 142 120z" />
    <glyph glyph-name="c" unicode="c" horiz-adv-x="1248" 
d="M1323 625c-65.333 -110.667 -156 -201.333 -272 -272s-241 -111.667 -375 -123c-176.667 -15.333 -299.667 41 -369 169c-59.333 109.333 -69 241 -29 395c42 156.667 129 298.667 261 426c146 144.667 310.667 225 494 241c236.667 20.667 389 -50 457 -212l-271 -177
c-27.333 96.667 -110.666 138.667 -249.999 126c-102 -9.33301 -191.333 -58.333 -268 -147c-60 -70.667 -102.667 -152 -128 -244c-22.667 -86 -25.334 -160.333 -8.00098 -223c24.667 -82 82.667 -119 174 -111c64 5.33301 125 26 183 62s102.667 80 134 132z" />
    <glyph glyph-name="d" unicode="d" horiz-adv-x="1270" 
d="M1423 906c-46.667 -171.333 -160.168 -324.832 -340.501 -460.499s-374.5 -212.5 -582.5 -230.5l-263 -22c22.667 104.667 48.334 210 77.001 316c60 224 134.667 453 224 687c-38.667 -6.66699 -73 -14 -103 -22l19 224c58 13.333 117.667 22.333 179 27
c239.333 21.333 438 -10 596 -94c179.333 -96.667 244 -238.334 194 -425.001zM1133 879.001c27.333 108 -8.00098 192.332 -106.001 252.999c-85.333 52 -196.666 78 -333.999 78l111 -75c-51.333 -109.333 -95.333 -231.666 -132 -366.999
c-18 -67.333 -42.333 -171 -73 -311c126 20.667 239.5 70.5 340.5 149.5s165.5 169.833 193.5 272.5z" />
    <glyph glyph-name="e" unicode="e" horiz-adv-x="1171" 
d="M1446 1488l-79.001 -240c-92 -4.66699 -189.333 -11.667 -292 -21c-86.667 -8 -165.667 -16 -237 -24l-31 -104c-12.667 -45.333 -22.667 -92 -30 -140c73.333 10.667 151 19.334 233 26.001c83.333 6.66699 161.333 11.667 234 15l-66 -246
c-80 -0.666992 -157.5 -4.5 -232.5 -11.5s-153.5 -16.833 -235.5 -29.5c-19.333 -42.667 -34 -84 -44 -124c-11.333 -40 -18.333 -80.333 -21 -121c83.333 10 172 19.667 266 29c92.667 8 180.334 13.667 263.001 17l-65 -246c-146.667 -6.66699 -287.667 -15.667 -423 -27
c-134 -12.667 -276.333 -28 -427 -46c36.667 174 79 348.667 127 524c43.333 161.333 89.333 317.666 138 468.999l-126 -5l54 227c242.667 12 459 26 649 42c112.667 10.667 227.667 22.667 345 36z" />
    <glyph glyph-name="f" unicode="f" horiz-adv-x="1111" 
d="M1446 1488l-78.999 -240.003c-117.333 -6 -215.333 -12.333 -294 -19c-66.667 -6.66699 -145 -15.334 -235 -26.001c-9.33301 -27.333 -19.666 -60.333 -30.999 -99c-11.333 -47.333 -21.333 -95.666 -30 -144.999c73.333 10.667 151 19.334 233 26.001
c83.333 6.66699 161.333 11.667 234 15l-66 -246c-80 -0.666992 -157.5 -4.5 -232.5 -11.5s-153.5 -16.833 -235.5 -29.5c-29.333 -81.333 -54.833 -163.666 -76.5 -246.999s-39.834 -164.666 -54.501 -243.999l-320 -27c30 147.333 78 343.333 144 588
c35.333 132 74.666 263 117.999 393l-130 2l61 232c274.667 14.667 496.667 29.334 666 44.001c104.667 9.33301 214 20.666 328 33.999z" />
    <glyph glyph-name="g" unicode="g" horiz-adv-x="1275" 
d="M1231 280l-284 -26l29 104c-116 -77.333 -238.667 -121.666 -368 -132.999c-168.667 -14.667 -277.334 45 -326.001 179c-41.333 107.333 -42 237.333 -2 390c42 156.667 129 298.667 261 426c146.667 144.667 311 225 493 241c236.667 20.667 389.334 -50 458.001 -212
l-272 -177c-29.333 96.667 -112.333 138.667 -249 126c-101.333 -8 -190 -57.333 -266 -148c-62.667 -73.333 -106.667 -155.333 -132 -246c-23.333 -91.333 -26 -166.333 -8 -225c24 -78.667 85.333 -114 184 -106c62.667 5.33301 112.667 16.666 150 33.999
c88 40 157 152 207 336l293 60z" />
    <glyph glyph-name="h" unicode="h" horiz-adv-x="1251" 
d="M1521 1487c-78.667 -228 -144.334 -440.331 -197.001 -636.998c-50 -188 -93 -379.333 -129 -574l-314 -10l90 410l-374 5c-26 -72.667 -48.667 -144.334 -68 -215.001c-21.333 -80.667 -40.666 -165 -57.999 -253l-312 -10c24 117.333 50.667 230.666 80 339.999
c77.333 288 166 578.667 266 872l316 10l-154 -488l369 -2l29 111c3.33301 10.667 19.333 58 48 142l94 288z" />
    <glyph glyph-name="i" unicode="i" horiz-adv-x="534" 
d="M811 1425c-80 -230.667 -146 -444.667 -198 -642c-50 -187.333 -93.333 -377.333 -130 -570l-317 -27c38.667 214 84 417.667 136 611c54.667 204 119.667 410 195 618z" />
    <glyph glyph-name="j" unicode="j" horiz-adv-x="894" 
d="M1179 1456c-44 -126.667 -83.6709 -255.997 -119.004 -387.997l-55 -214.5l-54 -215.5c-40 -144 -140.333 -259.333 -301 -346c-95.333 -51.333 -188.666 -81 -279.999 -89c-126 -10 -219.333 14.333 -280 73l234 200c28.667 -16.667 70.334 -23 125.001 -19
c82.667 7.33301 137.334 59.666 164.001 156.999c12 49.333 32.333 122.666 61 219.999s49.334 170.333 62.001 219c34.667 130.667 72 255.667 112 375c109.333 17.333 171.333 26.666 186 27.999c40 3.33301 88.333 3.33301 145 0z" />
    <glyph glyph-name="k" unicode="k" horiz-adv-x="1195" 
d="M1181 346l-342.999 -101.998c-46.667 194.667 -124 330 -232 406c-8 -32 -21.667 -80.667 -41 -146s-33 -114 -41 -146c-16 -58 -28 -106.333 -36 -145l-317 -27c38.667 214 84 417.667 136 611c54.667 204 119.667 410 195 618l314 10
c-20.667 -59.333 -38.334 -118 -53.001 -176c-9.33301 -32.667 -22.333 -84.334 -39 -155.001c-16 -64.667 -29.667 -115.334 -41 -152.001c232 225.333 401 403 507 533l281 -45l-336 -358c-48 -51.333 -126 -124.666 -234 -219.999
c144.667 -176.667 238 -345.334 280 -506.001z" />
    <glyph glyph-name="l" unicode="l" horiz-adv-x="870" 
d="M957 507l-90 -259.998c-110.667 -16.667 -228 -30 -352 -40c-124.667 -12 -240 -19 -346 -21c40 215.333 85.333 419.666 136 612.999c54 203.333 119 408.666 195 615.999l314 10c-78.667 -232 -143.334 -443 -194.001 -633
c-27.333 -101.333 -53.666 -208.333 -78.999 -321c70.667 0 139.667 3 207 9c68 5.33301 137.667 14.333 209 27z" />
    <glyph glyph-name="m" unicode="m" horiz-adv-x="1633" 
d="M1894 1447c-45.333 -54.667 -77.667 -105.669 -97 -153.002c-8 -19.333 -20 -56.333 -36 -111l-249 -879l-319 -28c11.333 50.667 22.666 98.667 33.999 144c26 94 66.333 223 121 387l-443 -493l-236 449c-10 -29.333 -19.667 -61.666 -29 -96.999l-44 -164
c-27.333 -106 -49.666 -200.667 -66.999 -284l-317 -29c40.667 192.667 89 391.334 145 596.001c37.333 141.333 75.333 274.333 114 399l-51 86l326 165l266 -629l568 703z" />
    <glyph glyph-name="n" unicode="n" horiz-adv-x="1294" 
d="M1254 299l-302.998 -45l-285 509c-20.667 -68.667 -34.334 -116.334 -41.001 -143.001c-32 -120.667 -65 -255 -99 -403l-318 -28c41.333 192.667 89.666 391.334 144.999 596.001c38 141.333 76.333 274 115 398l-52 87l326 165l306 -638
c16.667 90 36.667 178.667 60 266c38.667 140 84 269.333 136 388l280 -79c-54.667 -159.333 -100.667 -310 -138 -452c-54.667 -204 -98.667 -411 -132 -621z" />
    <glyph glyph-name="o" unicode="o" horiz-adv-x="1307" 
d="M1430 848c-40.667 -148.667 -128.668 -282.334 -264.001 -401.001c-147.333 -128.667 -308 -201 -482 -217c-177.333 -14.667 -301.333 41.333 -372 168c-62.667 110 -74 242 -34 396c43.333 158 130.333 300 261 426c146 144.667 310.667 225 494 241
c236.667 20.667 389 -50 457 -212l-104 -70c64.667 -87.333 79.334 -197.666 44.001 -330.999zM1212 1091c-35.333 82.667 -118.333 118.331 -249 106.998c-99.333 -9.33301 -186.666 -58.666 -261.999 -147.999c-61.333 -70.667 -104 -151.667 -128 -243
c-24.667 -90.667 -26.334 -166.667 -5.00098 -228c26.667 -78.667 89.334 -113.667 188.001 -105c90 8 172 49.667 246 125c64.667 68 108 141.333 130 220c21.333 80.667 11.666 147.334 -29.001 200.001z" />
    <glyph glyph-name="p" unicode="p" horiz-adv-x="1249" 
d="M1495 1145c-5.33301 -24.667 -13.334 -45.667 -24.001 -63c-71.333 -144.667 -188.333 -263 -351 -355c-148 -83.333 -315.333 -136.333 -502 -159l-111 -353l-289 -24l328 1005c-34 -4 -70.333 -11.333 -109 -22l19 224c58.667 13.333 118.334 23 179.001 29
c257.333 21.333 451.333 22.333 582 3c227.333 -34 320 -129 278 -285zM1152 1060c16 60 -4 102 -60 126c-43.333 18 -110.333 26.667 -201 26c-67.333 -3.33301 -134.666 -6.33301 -201.999 -9l122 -51l-122 -362c97.333 9.33301 190.333 36 279 80
c103.333 52.667 164.666 116 183.999 190z" />
    <glyph glyph-name="q" unicode="q" horiz-adv-x="1304" 
d="M1435 901c-50.667 -188.667 -154 -349.001 -310 -481.001c43.333 -38.667 96 -64.334 158 -77.001l-288 -181c-48 27.333 -87.333 65 -118 113c-66 -24 -133.667 -39 -203 -45c-177.333 -15.333 -301.333 40 -372 166c-62.667 111.333 -74 243.333 -34 396
c42 156.667 129 299.334 261 428.001c146.667 143.333 311 223 493 239c224.667 20.667 376 -63 454 -251l-61 -39c43.333 -69.333 50 -158.666 20 -267.999zM1193 1065c-46.667 98 -126.998 141.669 -240.998 131.002c-98.667 -8 -186.667 -58 -264 -150
c-60.667 -72.667 -103.334 -154.667 -128.001 -246c-22.667 -86 -23.334 -160.333 -2.00098 -223c27.333 -78.667 88.333 -114 183 -106c19.333 1.33301 38 4.66602 56 9.99902c-12.667 48 -23 100 -31 156l236 150c0 -54.667 5.66699 -106.667 17 -156
c56.667 73.333 96 149.666 118 228.999c16.667 69.333 12.667 123 -12 161z" />
    <glyph glyph-name="r" unicode="r" horiz-adv-x="1287" 
d="M1488 1145c-27.333 -106 -95.998 -206 -205.998 -300c-104.667 -88.667 -224.334 -156.334 -359.001 -203.001c150.667 -61.333 261 -176.333 331 -345l-331 -87c-40.667 168.667 -144.667 288 -312 358c-50 -146.667 -87 -264.334 -111 -353.001l-311 -27
c65.333 225.333 180.333 560.333 345 1005c-30.667 -3.33301 -65.334 -9.66602 -104.001 -18.999l19 224c59.333 13.333 119 22.333 179 27c259.333 22.667 453.333 24.334 582 5.00098c227.333 -35.333 320 -130.333 278 -285zM1145 1060c22.667 84 -27.333 133 -150 147
c-25.333 3.33301 -129 2 -311 -4l120 -51l-121 -362c96.667 9.33301 189.334 36 278.001 80c103.333 52.667 164.666 116 183.999 190z" />
    <glyph glyph-name="s" unicode="s" horiz-adv-x="910" 
d="M1215 1456l-90 -264.999l-246 -25c-17.333 -2.66699 -35 -12 -53 -28s-29.333 -31.333 -34 -46c-3.33301 -12.667 13 -62 49 -148c40 -100 61.667 -157 65 -171c20.667 -70.667 23.667 -133.334 9 -188.001c-10.667 -44 -24.334 -78.667 -41.001 -104
c-56 -87.333 -165.333 -159 -328 -215c-127.333 -42 -258.666 -69.333 -393.999 -82l36 284c110 13.333 197.667 31.333 263 54c54 18.667 85.667 46 95 82c6.66699 26 -2.33301 75 -27 147l-75 165c-28.667 72 -36.667 131.333 -24 178c14.667 60 52.667 119.667 114 179
s129 103.666 203 132.999c60.667 24 138 40 232 48c82 6.66699 164 7.33398 246 2.00098z" />
    <glyph glyph-name="t" unicode="t" horiz-adv-x="1091" 
d="M1410 1452l-81.001 -245l-329 -14c-50 -165.333 -96 -325.333 -138 -480c-42 -155.333 -81.333 -314.333 -118 -477l-319 -28c37.333 181.333 79.333 358.333 126 531c36.667 138.667 79.334 283.667 128.001 435l-321 -12l82 248z" />
    <glyph glyph-name="u" unicode="u" horiz-adv-x="1292" 
d="M1393 811c-38 -139.333 -121.668 -265.667 -251.001 -379c-138 -119.333 -289.333 -186 -454 -200c-170 -14.667 -291.333 36 -364 152c-64.667 104.667 -77.667 229.667 -39 375l174 652l295 14l-174 -652c-20 -77.333 -19.333 -145 2 -203
c29.333 -71.333 86.333 -103.333 171 -96c84 7.33301 155.667 44.333 215 111c46.667 54 82.334 119 107.001 195l196 666l296 11z" />
    <glyph glyph-name="v" unicode="v" horiz-adv-x="1169" 
d="M1487 1456c-90 -125.333 -200.666 -301.332 -331.999 -527.999c-162.667 -278.667 -285 -507.667 -367 -687c-90.667 5.33301 -185 3.66602 -283 -5.00098c-43.333 -4 -83 -8.66699 -119 -14c-6 140 -4.33301 321.333 5 544c11.333 249.333 26.666 463.333 45.999 642
l302 15c-40 -336.667 -52.667 -605.667 -38 -807c138 297.333 291.333 572 460 824z" />
    <glyph glyph-name="w" unicode="w" horiz-adv-x="1681" 
d="M1964 1495c-161.333 -334.667 -336.329 -725.337 -524.996 -1172c-52.667 0 -104.667 -2.33301 -156 -7c-85.333 -7.33301 -170 -21 -254 -41c-8 93.333 -13.667 234.333 -17 423c-54.667 -101.333 -132 -254.333 -232 -459c-91.333 5.33301 -183 4.33301 -275 -3
l-111 -12c-4.66699 139.333 -2.33398 320 6.99902 542c12.667 250.667 28 465.334 46 644.001l302 13c-40 -335.333 -52.333 -603.666 -37 -804.999l138 304c53.333 116.667 105.666 217.334 156.999 302.001c-1.33301 54.667 1 109.334 7 164.001l317 -11
c-24.667 -212.667 -26.334 -449.334 -5.00098 -710.001l169 425c33.333 86.667 88.666 216.334 165.999 389.001z" />
    <glyph glyph-name="x" unicode="x" horiz-adv-x="1217" 
d="M1205 345l-353 -98.999c-42.667 85.333 -95.667 204.666 -159 357.999c-112.667 -106.667 -227 -241 -343 -403l-198 86c186.667 226 338 400 454 522c-83.333 226.667 -141.333 399.667 -174 519l358 112c3.33301 -21.333 35.666 -131 96.999 -329
c106 103.333 239.333 225 400 365l193 -106c-154.667 -128 -331 -290.667 -529 -488c56.667 -164.667 141.334 -343.667 254.001 -537z" />
    <glyph glyph-name="y" unicode="y" horiz-adv-x="1142" 
d="M1461 1434c-135.333 -157.333 -299.668 -367.332 -493.001 -629.999c-25.333 -34 -60 -86.333 -104 -157c-16 -32 -32.667 -80 -50 -144c-27.333 -102 -50 -196.333 -68 -283l-314 -10c21.333 98.667 43 189.667 65 273c16.667 67.333 34.334 128.333 53.001 183
c-26.667 64.667 -56.334 184.667 -89.001 360c-27.333 148.667 -43.333 267 -48 355l324 54c6 -78 11.667 -156.333 17 -235c10.667 -92 29 -165.333 55 -220c130.667 217.333 247.334 374.666 350.001 471.999z" />
    <glyph glyph-name="z" unicode="z" horiz-adv-x="1166" 
d="M1196 521l-143.002 -247.998c-138.667 -19.333 -274.667 -35.333 -408 -48c-156 -13.333 -326 -23 -510 -29c98.667 141.333 226 312.666 382 513.999c-80.667 -9.33301 -150.667 -18.333 -210 -27l65 245c124 16 240 29.333 348 40l195 237
c-150.667 -10 -322.667 -19 -516 -27l127 239c225.333 10 426 23 602 39c100 8.66699 209.333 20 328 34c-133.333 -146.667 -275.666 -312.667 -426.999 -498c44.667 2 92.334 4 143.001 6l-66 -245c-80.667 -2.66699 -173 -7.33398 -277 -14.001l-215 -290l33 3
c200 17.333 383 40.333 549 69z" />
    <glyph glyph-name="braceleft" unicode="{" horiz-adv-x="1439" 
d="M1565 1649l-130.999 -325.999l-362 -21c-19.333 -60 -42 -139 -68 -237c-98 -368.667 -173.667 -668 -227 -898l385 31l-83 -336l-441 -29c-101.333 -6.66699 -178.166 11.333 -230.499 54s-69.833 107.667 -52.5 195c9.33301 58 30.333 147.333 63 268l53 198l-179 -14
l90 381l195 17l90 333c25.333 92 82.666 171.833 171.999 239.5s176.666 105.5 261.999 113.5c16 1.33301 170.667 11.666 464 30.999z" />
    <glyph glyph-name="bar" unicode="|" horiz-adv-x="1039" 
d="M1150 1621c-98.667 -291.333 -196.332 -616.668 -292.999 -976.001c-84.667 -315.333 -149 -587.666 -193 -816.999l-398 -36c49.333 264.667 116 554.667 200 870c101.333 374.667 198.666 690 291.999 946z" />
    <glyph glyph-name="braceright" unicode="}" horiz-adv-x="1446" 
d="M1427 601l-192.998 -17.001l-111 -403c-20.667 -83.333 -71.334 -160 -152.001 -230c-86.667 -73.333 -180 -114.333 -280 -123c-20.667 -2.66699 -175.334 -13 -464.001 -31l89 324l406 22c18 62 39.667 141.333 65 238c98.667 366 175.334 665 230.001 897l-387 -30
l83 336l442 29c99.333 5.33301 175.166 -13 227.499 -55s71.5 -106.667 57.5 -194c-10 -57.333 -42.333 -186.666 -97 -387.999v-8l176 13z" />
    <glyph glyph-name="asciitilde" unicode="~" horiz-adv-x="1440" 
d="M1481 1282c-94 -65.333 -193.335 -102.334 -298.002 -111.001c-41.333 -3.33301 -88.666 8.83398 -141.999 36.501s-102.666 39.167 -147.999 34.5c-115.333 -8.66699 -226 -50.667 -332 -126l57 210c100 74 205.333 116 316 126
c50.667 4.66699 102.5 -6.83301 155.5 -34.5s103.833 -39.5 152.5 -35.5c104 8 202.667 45 296 111z" />
    <glyph glyph-name="nonbreakingspace" unicode="&#xa0;" horiz-adv-x="678" 
 />
    <glyph glyph-name="exclamdown" unicode="&#xa1;" horiz-adv-x="828" 
d="M823 976c-9.33301 -36 -32.001 -67.167 -68.001 -93.5s-75.333 -41.833 -118 -46.5c-44.667 -3.33301 -79 5.5 -103 26.5s-30.667 49.833 -20 86.5c8.66699 36.667 31.334 68.334 68.001 95.001s77 41.667 121 45c43.333 4.66699 76.333 -3.83301 99 -25.5
s29.667 -50.834 21 -87.501zM533.999 -106l-316 -44c84.667 294.667 174.667 579.667 270 855l225 19c-77.333 -312 -137 -588.667 -179 -830z" />
    <glyph glyph-name="cent" unicode="&#xa2;" horiz-adv-x="1406" 
d="M1413 633c-98 -170.667 -247.665 -288.331 -448.998 -352.998l-46 -176l-339 -29l46 169c-123.333 25.333 -207 96.333 -251 213c-36.667 102.667 -38.334 217.667 -5.00098 345c35.333 130 103.333 252.333 204 367c112 130 242 218.667 390 266l39 145l314 28l-38 -140
c150.667 -18.667 251 -89.334 301 -212.001l-270 -177c-29.333 96.667 -112.333 139.334 -249 128.001c-102.667 -9.33301 -192 -58.333 -268 -147c-60.667 -70.667 -103.334 -152 -128.001 -244c-24 -86.667 -27 -161.334 -9 -224.001c25.333 -82.667 83 -120 173 -112
c64.667 5.33301 126 25.666 184 60.999s103 80.333 135 135z" />
    <glyph glyph-name="currency" unicode="&#xa4;" horiz-adv-x="1526" 
d="M1365 358l-353 -99.001l-67 140c-48.667 -18 -98 -28.667 -148 -32c-60 -6 -112.333 0.333008 -157 19l-130 -169l-199 85l189 225c-30.667 77.333 -33 164 -7 260c30 110 89.333 211.333 178 304c-30.667 86 -57 169.333 -79 250l359 113c11.333 -48 27 -106 47 -174
l62 9c55.333 4 106 1.66699 152 -7l235 208l193 -106c-79.333 -66 -164.666 -141 -255.999 -225l17 -31l-68 -46c42 -68 50 -152.667 24 -254c-20.667 -77.333 -62.334 -152.666 -125.001 -225.999c36.667 -74.667 81 -156 133 -244zM1130 806.999
c19.333 69.333 14.667 124.668 -14 166.001l72 49c-30 54 -90.333 77 -181 69c-75.333 -7.33301 -141.333 -44.333 -198 -111c-45.333 -54 -77.333 -115 -96 -183c-18 -67.333 -19 -124.333 -3 -171c19.333 -58.667 66 -84.667 140 -78c68 5.33301 130 36.666 186 93.999
c48 50 79.333 105 94 165z" />
    <glyph glyph-name="yen" unicode="&#xa5;" horiz-adv-x="1731" 
d="M1889 1456c-198 -226.667 -399.332 -482.666 -603.999 -767.999l357 34l-63 -237l-453 -45c-14.667 -38.667 -32.334 -94.334 -53.001 -167.001l460 46l-50 -189l-454 -45c-11.333 -47.333 -21 -90.333 -29 -129l-392 -14c6.66699 35.333 14 70 22 104l-352 -34l51 189
l343 35c17.333 66 33 121 47 165l-350 -34l63 237l281 29c-26 82 -51 186 -75 312c-34 173.333 -54.333 321.333 -61 444l408 68c8 -94 15.333 -188.333 22 -283c13.333 -109.333 37.333 -197.333 72 -264c148.667 248 293 438 433 570z" />
    <glyph glyph-name="brokenbar" unicode="&#xa6;" horiz-adv-x="1038" 
d="M1150 1621c-77.333 -227.333 -155.667 -481.667 -235 -763l-398 -3c78.667 275.333 159 526.333 241 753zM663.999 -172.001l-397.999 -36.001c43.333 230.667 95.666 468.334 156.999 713.001l413 63c-70.667 -264 -128 -510.667 -172 -740z" />
    <glyph glyph-name="dieresis" unicode="&#xa8;" horiz-adv-x="1326" 
d="M1498 1715c-11.333 -40.667 -38.832 -77.334 -82.499 -110.001s-89.834 -50.667 -138.501 -54c-49.333 -4 -87.666 7 -114.999 33s-35.333 59.333 -24 100c9.33301 41.333 35.666 77.833 78.999 109.5s89.333 49.5 138 53.5c50 4 89 -6.66699 117 -32
s36.667 -58.666 26 -99.999zM992.001 1683c-9.33301 -36.667 -33.667 -69.833 -73 -99.5s-81.666 -46.167 -126.999 -49.5c-44.667 -4.66699 -79.5 5 -104.5 29s-32.833 54.667 -23.5 92c10 38 34.667 71.5 74 100.5s81.666 45.167 126.999 48.5
c46 4.66699 81.167 -5 105.5 -29s31.5 -54.667 21.5 -92z" />
    <glyph glyph-name="copyright" unicode="&#xa9;" horiz-adv-x="1773" 
d="M1754 865c-40.667 -150 -142.334 -283.834 -305.001 -401.501s-335 -184.5 -517 -200.5c-188 -16 -333.5 25.833 -436.5 125.5s-133.5 226.834 -91.5 381.501c42.667 160 146.667 300.333 312 421s346 189.667 542 207c236.667 21.333 400.334 -46 491.001 -202l-39 -20
c61.333 -85.333 76 -189 44 -311zM1543 849.999c26 96.667 9 175.666 -51 236.999l39 21c-66 89.333 -174.667 127.333 -326 114c-135.333 -11.333 -259.666 -58.333 -372.999 -141s-185.333 -180.334 -216 -293.001c-28.667 -105.333 -8 -192.666 62 -261.999
s170 -98.333 300 -87c122.667 10 240.667 55.333 354 136s183.666 172.334 210.999 275.001zM1319 716.998c-69.333 -118.667 -176.331 -183.999 -320.998 -195.999c-88.667 -8 -150 19.667 -184 83c-29.333 56 -34.333 122 -15 198c21.333 77.333 64 148.333 128 213
c74 72 156.333 112 247 120c118.667 11.333 195.667 -24 231 -106l-137 -89c-14.667 49.333 -56.334 71 -125.001 65c-50.667 -4.66699 -95 -29 -133 -73c-30.667 -36.667 -52.334 -77.667 -65.001 -123c-11.333 -43.333 -13 -80.333 -5 -111
c12.667 -42 41.667 -60.667 87 -56c70.667 5.33301 123.667 37.666 159 96.999z" />
    <glyph glyph-name="guillemotleft" unicode="&#xab;" horiz-adv-x="1729" 
d="M1538 357l-398 -34l-142 442l379 489l395 14l-379 -474zM927 316l-398 -34l-145 440l379 491l394 14l-379 -476z" />
    <glyph glyph-name="minus" unicode="&#xad;" horiz-adv-x="1302" 
d="M1244 910l-75 -228.999c-243.333 -40 -494.333 -70.667 -753 -92l94 239c290 27.333 534.667 54.666 734 81.999z" />
    <glyph glyph-name="registered" unicode="&#xae;" horiz-adv-x="1773" 
d="M1754 865c-40.667 -150 -142.334 -283.834 -305.001 -401.501s-335 -184.5 -517 -200.5c-188 -16 -333.5 25.833 -436.5 125.5s-133.5 226.834 -91.5 381.501c42.667 160 146.667 300.333 312 421s346 189.667 542 207c236.667 21.333 400.334 -46 491.001 -202l-39 -20
c61.333 -85.333 76 -189 44 -311zM1543 849.999c26 96.667 9 175.666 -51 236.999l39 21c-66 89.333 -174.667 127.333 -326 114c-135.333 -11.333 -259.666 -58.333 -372.999 -141s-185.333 -180.334 -216 -293.001c-28.667 -105.333 -8 -192.666 62 -261.999
s170 -98.333 300 -87c122.667 10 240.667 55.333 354 136s183.666 172.334 210.999 275.001zM1415 979.998c-14 -51.333 -47.998 -99.999 -101.998 -145.999s-114.333 -81.667 -181 -107c76 -30.667 131.667 -87.667 167 -171l-167 -44c-20.667 85.333 -72 145 -154 179
c-26 -72.667 -44.667 -131.334 -56 -176.001l-157 -13c36 120.667 94 288 174 502l-53 -11l8 113c33.333 8 63.666 13 90.999 15c319.333 27.333 462.666 -19.667 429.999 -141zM1244 938.999c11.333 42 -14.333 66.333 -77 73c-16 2 -67.667 1 -155 -3l60 -26l-60 -181
c48.667 6 96 19.667 142 41c51.333 26 81.333 58 90 96z" />
    <glyph glyph-name="glyph135" unicode="&#xaf;" horiz-adv-x="1664" 
d="M1688 1347l-1063 -93l47 174l1062 94z" />
    <glyph glyph-name="degree" unicode="&#xb0;" horiz-adv-x="899" 
d="M1010 1265c-14.667 -54.667 -50.6689 -103.335 -108.002 -146.002s-119 -67 -185 -73c-67.333 -5.33301 -119.166 9 -155.499 43s-47.166 79 -32.499 135c14.667 54.667 50.5 103.334 107.5 146.001s119.167 66.667 186.5 72c66 6 117.167 -8.16699 153.5 -42.5
s47.5 -79.166 33.5 -134.499zM871.998 1249c6 22.667 1.33203 41.5029 -14.001 56.5029s-36.666 20.833 -63.999 17.5c-27.333 -2.66699 -53 -12.834 -77 -30.501s-39 -37.834 -45 -60.501c-6.66699 -21.333 -2 -39.5 14 -54.5s37.667 -21.167 65 -18.5
c26 2 51.333 12.167 76 30.5s39.667 38.166 45 59.499z" />
    <glyph glyph-name="plusminus" unicode="&#xb1;" horiz-adv-x="1188" 
d="M1200 678l-318 -18l-44 -209l-256 -9l44 201l-266 -13l26 218l288 16l48 215l256 8l-48 -210l294 17zM1055 350l-77.001 -228.999c-243.333 -40 -493.666 -70.667 -750.999 -92l92 239c290 27.333 535.333 54.666 736 81.999z" />
    <glyph glyph-name="acute" unicode="&#xb4;" horiz-adv-x="806" 
d="M1010 1594l-541 -99l-3 60l590 215z" />
    <glyph glyph-name="paragraph" unicode="&#xb6;" horiz-adv-x="2195" 
d="M2311 1476l-135 -288.001c-42 16.667 -78 28.667 -108 36l-361 -1221h-314l370 1248c-26 -1.33301 -54.333 -3.66602 -85 -6.99902c-88.667 -6.66699 -166 -14.667 -232 -24l141 -59l-368 -1181l-362 -31l143 440c-200 -14.667 -357 23 -471 113
s-165.333 216.333 -154 379c2.66699 27.333 8 55.666 16 84.999c51.333 194.667 239 339 563 433c177.333 52.667 429.333 93.334 756 122.001c224 19.333 424.333 4.33301 601 -45zM1263 1188c-320 -62.667 -495.332 -149.333 -525.999 -260
c-4.66699 -22.667 -3.33398 -47.667 3.99902 -75c40.667 -140.667 160 -202 358 -184z" />
    <glyph glyph-name="periodcentered" unicode="&#xb7;" horiz-adv-x="799" 
d="M816 916c-11.333 -42 -39.166 -78.8311 -83.499 -110.498s-92.166 -49.834 -143.499 -54.501s-92 5.5 -122 30.5s-39.333 58.5 -28 100.5c11.333 41.333 39.666 78.166 84.999 110.499s93.666 50.833 144.999 55.5c51.333 3.33301 91.5 -7.5 120.5 -32.5
s37.833 -58.167 26.5 -99.5z" />
    <glyph glyph-name="guillemotright" unicode="&#xbb;" horiz-adv-x="1727" 
d="M1710 838l-391 -488l-397 -34l392 483l-136 430l406 44zM1092 773l-394 -490l-398 -34l395 483l-135 430l406 33z" />
    <glyph glyph-name="questiondown" unicode="&#xbf;" horiz-adv-x="1519" 
d="M1423 1029c-10 -36 -33.166 -67.501 -69.499 -94.501s-76.833 -42.167 -121.5 -45.5c-45.333 -4.66699 -78.833 3.5 -100.5 24.5s-27.834 50.5 -18.501 88.5c10 37.333 32.333 68.833 67 94.5s74.667 40.834 120 45.501c43.333 3.33301 77 -5.5 101 -26.5
s31.333 -49.833 22 -86.5zM1227 -44.001c-88.667 -19.333 -197.999 -34.667 -327.999 -46l-105 -11c-166.667 -13.333 -296 1.66699 -388 45c-114.667 52 -154.334 141.667 -119.001 269c60 223.333 302.333 353.666 727 390.999l49 161l273 17l-117 -369
c-186.667 -20.667 -303 -33.334 -349 -38.001c-56.667 -4 -107.667 -18 -153 -42c-58 -27.333 -92.667 -62.666 -104 -105.999c-25.333 -87.333 61.667 -122.666 261 -105.999c158 14 280.333 31.667 367 53z" />
    <glyph glyph-name="Agrave" unicode="&#xc0;" horiz-adv-x="1418" 
d="M1191 1618l-36 -63l-512 7l46 175zM1345 -10l-401 -94l5 264c-106 14 -221.667 15.333 -347 4l-85 -9l-113 -280l-387 -1c184.667 396 458.334 919.333 821.001 1570l524 19c-46.667 -430.667 -52.334 -921.667 -17.001 -1473zM963 435l-4 328
c2.66699 126 10.667 236.333 24 331l-345 -669c28.667 3.33301 55 6 79 8c85.333 7.33301 167.333 8 246 2z" />
    <glyph glyph-name="Aacute" unicode="&#xc1;" horiz-adv-x="1417" 
d="M1599 1645l-543 -99l-1 60l590 215zM1329 -12l-401 -94l6 265c-106 13.333 -221.667 14.333 -347 3c-24.667 -2 -53 -4.66699 -85 -8l-113 -279l-387 -3c184 396 457.667 919.333 821 1570l524 19c-46.667 -430 -52.667 -921 -18 -1473zM947 433
c-1.33301 109.333 -2.33301 218.668 -3 328.001c3.33301 127.333 11.333 237.666 24 330.999l-345 -669l78 9c85.333 6.66699 167.333 7 246 1z" />
    <glyph glyph-name="Acircumflex" unicode="&#xc2;" horiz-adv-x="1420" 
d="M1487 1609l-248 -25l-96 65l-141 -81l-258 -15l314 208l227 24zM1338 -12l-401 -92l5 263c-106 13.333 -221.333 15 -346 5c-25.333 -2.66699 -54 -6 -86 -10l-112 -279l-388 -3c184.667 397.333 458.334 921.333 821.001 1572l524 17
c-46.667 -430 -52.334 -921 -17.001 -1473zM956 435l-4 326.001c3.33301 127.333 11.333 237.666 24 330.999c-80.667 -148 -195.667 -371 -345 -669l79 9c85.333 8 167.333 9 246 3z" />
    <glyph glyph-name="Atilde" unicode="&#xc3;" horiz-adv-x="1449" 
d="M1594 1681c-95.333 -64.667 -195.333 -101.667 -300 -111c-41.333 -4.66699 -88.5 7.33301 -141.5 36s-102.5 40.667 -148.5 36c-114 -10.667 -224.667 -52.667 -332 -126l58 209c100.667 74 206 116.333 316 127c51.333 3.33301 103.5 -9 156.5 -37
s103.833 -39.667 152.5 -35c103.333 9.33301 201.333 46.333 294 111zM1352 -10l-400.999 -94l5 264c-106 14 -221.667 15.333 -347 4c-24.667 -1.33301 -53 -4.33301 -85 -9l-113 -278l-387 -3c184 396 457.667 919.333 821 1570l524 19
c-46.667 -430.667 -52.334 -921.667 -17.001 -1473zM969.001 435c-0.666992 109.333 -1.66797 218.668 -3.00098 328.001c2 127.333 10 237.666 24 330.999l-345 -669c28.667 3.33301 54.334 6 77.001 8c86.667 7.33301 169 8 247 2z" />
    <glyph glyph-name="Adieresis" unicode="&#xc4;" horiz-adv-x="1437" 
d="M1568 1722c-11.333 -40.667 -38.502 -77.332 -81.502 -109.999s-89.5 -51.334 -139.5 -56.001c-49.333 -4 -87.666 7.33301 -114.999 34s-35.333 60.334 -24 101.001c10.667 40 37.334 76 80.001 108s89 50 139 54c48.667 4.66699 86.667 -5.83301 114 -31.5
s36.333 -58.834 27 -99.501zM1062 1690c-9.33301 -38 -33.668 -71.501 -73.001 -100.501s-81.666 -45.833 -126.999 -50.5c-45.333 -3.33301 -80 6.66699 -104 30s-31.333 54 -22 92c10 37.333 34.333 70.5 73 99.5s80.667 45.833 126 50.5
c44.667 3.33301 79.5 -6.66699 104.5 -30s32.5 -53.666 22.5 -90.999zM1345 -9.99902l-401 -94l5 264c-106 14 -221.667 15.333 -347 4l-85 -9l-113 -280l-387 -1c184.667 396 458.334 919.333 821.001 1570l524 19c-46.667 -430.667 -52.334 -921.667 -17.001 -1473z
M962.996 435.001l-4 328c2.66699 126 10.667 236.333 24 331l-345 -669c28.667 3.33301 55 6 79 8c85.333 7.33301 167.333 8 246 2z" />
    <glyph glyph-name="Aring" unicode="&#xc5;" horiz-adv-x="1422" 
d="M1396 1754c-13.333 -54 -48.5 -102.334 -105.5 -145.001s-119 -67 -186 -73s-118.5 8.16699 -154.5 42.5s-46.667 79.166 -32 134.499c14 54.667 49.333 103.334 106 146.001s118.667 66.834 186 72.501s118.833 -8.5 154.5 -42.5s46.167 -79 31.5 -135zM1338 -12.001
l-401 -92l5 263c-106 13.333 -221.333 15 -346 5c-25.333 -2.66699 -54 -6 -86 -10l-112 -279l-388 -3c184.667 397.333 458.334 921.333 821.001 1572l524 17c-46.667 -430 -52.334 -921 -17.001 -1473zM1260 1739c5.33301 22.667 0.333984 41.1689 -14.999 55.502
s-36 20.166 -62 17.499c-27.333 -2 -53 -11.833 -77 -29.5s-39.333 -37.834 -46 -60.501c-6 -22.667 -1.33301 -41.167 14 -55.5s36.666 -20.166 63.999 -17.499c26.667 2 52.167 12.167 76.5 30.5s39.5 38.166 45.5 59.499zM956.001 435.001l-4 326.001
c3.33301 127.333 11.333 237.666 24 330.999c-80.667 -148 -195.667 -371 -345 -669l79 9c85.333 8 167.333 9 246 3z" />
    <glyph glyph-name="AE" unicode="&#xc6;" horiz-adv-x="2193" 
d="M2466 1562l-113.001 -315.996c-124 -6.66699 -244.333 -15.334 -361 -26.001c-98 -8 -198.667 -18 -302 -30c-12.667 -35.333 -24.667 -75.333 -36 -120c-16 -61.333 -30.333 -123.333 -43 -186c100 14 198 24.667 294 32c96.667 9.33301 193.667 15.666 291 18.999
l-81 -307c-81.333 -1.33301 -169.666 -6 -264.999 -14c-112.667 -10 -226.334 -24 -341.001 -42c-3.33301 -9.33301 -7 -19 -11 -29c-3.33301 -14.667 -6.66602 -34.834 -9.99902 -60.501s-7.33301 -45.834 -12 -60.501c-13.333 -51.333 -23 -101.666 -29 -150.999
c112.667 14 223.667 26 333 36c110.667 9.33301 221 16.666 331 21.999l-83 -307c-120 -6.66699 -293 -19.667 -519 -39c-28.667 -2 -217 -25.333 -565 -70l41 251c-101.333 13.333 -215.333 14.333 -342 3c-27.333 -2 -55.666 -4.66699 -84.999 -8l-157 -284l-382 -1
c245.333 401.333 598.666 931.333 1060 1590c348 12.667 734.667 37.667 1160 75c70.667 6 146.334 13.667 227 23zM1241 1149c-48 -76.667 -135.668 -195.667 -263.001 -357c-120.667 -154.667 -207 -274.667 -259 -360c26.667 3.33301 53.334 6 80.001 8
c85.333 7.33301 166 8 242 2c67.333 251.333 134 487 200 707z" />
    <glyph glyph-name="Egrave" unicode="&#xc8;" horiz-adv-x="1350" 
d="M1186 1618l-37 -63l-512 7l46 175zM1679 1507l-97 -302c-124 -6 -244.667 -14 -362 -24c-98 -9.33301 -198.667 -20 -302 -32c-11.333 -34.667 -23.333 -74 -36 -118c-16.667 -61.333 -30.334 -123.333 -41.001 -186c98 12.667 195.333 23.334 292 32.001
c98 8 195.333 14.333 292 19l-82 -307c-95.333 -1.33301 -192.666 -6.66602 -291.999 -15.999c-96.667 -8 -194.334 -19.667 -293.001 -35c-22 -52.667 -39.833 -104.667 -53.5 -156s-23.167 -102 -28.5 -152c112.667 15.333 224 27.333 334 36
c110.667 10.667 220 18 328 22l-80 -307c-176.667 -8 -353 -20 -529 -36c-175.333 -14.667 -353.333 -33.334 -534 -56.001c47.333 225.333 99 441.666 155 648.999c52 194 110.667 392 176 594l-159 -7l68 283c305.333 16 573.333 34.333 804 55
c136.667 11.333 283.334 26 440.001 44z" />
    <glyph glyph-name="Eacute" unicode="&#xc9;" horiz-adv-x="1362" 
d="M1592 1645l-542 -99l-4 60l592 215zM1662 1505l-97.001 -299.998c-124 -6.66699 -244.667 -15.334 -362 -26.001c-98 -8 -198.667 -18 -302 -30c-11.333 -34.667 -23.333 -74 -36 -118c-16.667 -62.667 -30.334 -125.334 -41.001 -188.001c98 14 195.333 25 292 33
c98 8.66699 195.333 14.667 292 18l-82 -307c-95.333 -1.33301 -192.666 -6.33301 -291.999 -15c-96.667 -8 -194.334 -20 -293.001 -36c-22 -52.667 -39.833 -104.5 -53.5 -155.5s-23.167 -101.5 -28.5 -151.5c112.667 14.667 224 26.667 334 36
c110.667 10 220 17.333 328 22l-80 -307c-176.667 -8 -353 -20 -529 -36c-175.333 -15.333 -353.666 -34.333 -534.999 -57c48 225.333 100 441.666 156 648.999c52 194.667 110.667 393.334 176 596.001l-159 -9l68 283c305.333 16 573.333 34.333 804 55
c136.667 11.333 283.334 26 440.001 44z" />
    <glyph glyph-name="Ecircumflex" unicode="&#xca;" horiz-adv-x="1357" 
d="M1478 1608l-247 -26l-94 67l-144 -82l-256 -14l314 208l226 22zM1671 1507l-97.001 -302c-124 -6 -244.667 -14 -362 -24c-98 -9.33301 -198.667 -20 -302 -32c-11.333 -34.667 -23.333 -74 -36 -118c-17.333 -62.667 -31 -125.334 -41 -188.001c98 14 195.333 25 292 33
c97.333 8.66699 194.666 14.667 291.999 18l-82 -307c-96 -1.33301 -193.333 -6 -292 -14c-96.667 -8.66699 -194.667 -21 -294 -37c-21.333 -51.333 -39 -103 -53 -155c-13.333 -51.333 -23 -101.666 -29 -150.999c112.667 14 224.334 26 335.001 36
c110 9.33301 219 16.666 327 21.999l-80 -307c-176 -8.66699 -352.333 -20.667 -529 -36c-175.333 -16 -353.333 -35.333 -534 -58c48 226.667 99.667 443.667 155 651c52.667 193.333 111.334 391.333 176.001 594l-159 -7l69 283
c304.667 14.667 572.667 32.334 804 53.001c136 12.667 282.667 28 440 46z" />
    <glyph glyph-name="Edieresis" unicode="&#xcb;" horiz-adv-x="1382" 
d="M1562 1722c-11.333 -40.667 -38.999 -77.333 -82.999 -110s-90.5 -51.167 -139.5 -55.5s-87.333 6.5 -115 32.5s-35.834 59.667 -24.501 101c10 40.667 36.667 77 80 109s89.333 50 138 54c49.333 4 87.833 -6.83301 115.5 -32.5s37.167 -58.5 28.5 -98.5zM1055 1690
c-9.33301 -38 -33.666 -71.502 -72.999 -100.502s-81.666 -45.833 -126.999 -50.5c-45.333 -3.33301 -80.333 6.66699 -105 30s-32.334 54 -23.001 92c10 37.333 34.667 70.5 74 99.5s81.666 45.167 126.999 48.5c44.667 4.66699 79.5 -4.66602 104.5 -27.999
s32.5 -53.666 22.5 -90.999zM1678 1507l-98.001 -301.998c-124 -6 -244.333 -14 -361 -24c-98 -9.33301 -199 -20 -303 -32c-11.333 -34.667 -23 -74 -35 -118c-17.333 -61.333 -31 -123.333 -41 -186c97.333 12.667 194.666 23.334 291.999 32.001
c97.333 8 194.333 14.333 291 19l-82 -307c-95.333 -2.66699 -192.333 -8 -291 -16c-96.667 -8.66699 -194.667 -20.334 -294 -35.001c-21.333 -52.667 -38.833 -104.667 -52.5 -156s-23.5 -102 -29.5 -152c112.667 15.333 224.334 27.333 335.001 36
c110 10.667 219 18 327 22l-80 -307c-176 -8 -352.333 -20 -529 -36c-175.333 -14.667 -353.333 -33.334 -534 -56.001c48 225.333 99.667 441.666 155 648.999c52.667 194 111.334 392 176.001 594l-159 -7l68 283c305.333 16 573.333 33.667 804 53
c136.667 12.667 283.667 28 441 46z" />
    <glyph glyph-name="Igrave" unicode="&#xcc;" horiz-adv-x="1036" 
d="M1022 1604l-34 -63l-514 7l47 174zM961 -53c-146 -3.33301 -294.003 -11.998 -444.003 -25.998c-148 -12 -297.667 -29.333 -449 -52l58 271l215 29c30.667 164 67.334 326.667 110.001 488c40.667 150 91.667 313.333 153 490
c-46.667 -2.66699 -116 -8.33398 -208 -17.001l84 281l216 21c220.667 19.333 442.667 26 666 20l-87 -281c-167.333 0 -335.666 -4.66699 -504.999 -14l254 -77c-27.333 -88.667 -54.666 -182.334 -81.999 -281.001c-48 -178.667 -92.333 -375 -133 -589l210 8z" />
    <glyph glyph-name="Iacute" unicode="&#xcd;" horiz-adv-x="1009" 
d="M1186 1609l-541 -99l-2 60l591 215zM915 -56c-146 -4.66699 -294.001 -13.334 -444.001 -26.001c-148 -13.333 -297.667 -31 -449 -53l58 270l215 29c30.667 164 67.667 326.667 111 488c40 151.333 90.667 315 152 491c-46.667 -3.33301 -116 -9.33301 -208 -18l83 281
c60.667 7.33301 133.667 14.333 219 21c219.333 19.333 440.666 26 663.999 20l-87 -281c-167.333 0.666992 -335.666 -3.33301 -504.999 -12l254 -79c-27.333 -87.333 -54.666 -180.666 -81.999 -279.999c-48 -179.333 -92.333 -376 -133 -590l210 8z" />
    <glyph glyph-name="Icircumflex" unicode="&#xce;" horiz-adv-x="1010" 
d="M1282 1591l-249 -26l-93 67l-143 -82l-256 -14l314 208l224 22zM920 -56c-146 -3.33301 -294.001 -11.999 -444.001 -25.999c-148 -12.667 -297.667 -30.334 -449 -53.001l58 272l215 29c30.667 163.333 67.667 325.333 111 486c40 151.333 90.667 315 152 491
c-46.667 -2 -116 -7.66699 -208 -17l84 282c60 6 132.667 12.667 218 20c219.333 19.333 440.666 26.333 663.999 21l-87 -282c-167.333 0 -335.666 -4.33301 -504.999 -13l254 -77c-27.333 -88.667 -54.666 -182.667 -81.999 -282c-48 -178.667 -92.333 -374.667 -133 -588
l210 6z" />
    <glyph glyph-name="Idieresis" unicode="&#xcf;" horiz-adv-x="1068" 
d="M1384 1705c-11.333 -40.667 -38.666 -76.998 -81.999 -108.998s-89.333 -50.333 -138 -55c-50 -4.66699 -88.333 6.16602 -115 32.499s-34.334 59.833 -23.001 100.5c10 41.333 36 77.833 78 109.5s88 49.834 138 54.501c49.333 3.33301 87.833 -7.83398 115.5 -33.501
s36.5 -58.834 26.5 -99.501zM877 1674c-8.66699 -37.333 -32.3359 -70.499 -71.0029 -99.499s-81 -45.833 -127 -50.5c-45.333 -3.33301 -80.166 6.66699 -104.499 30s-32.166 53.666 -23.499 90.999c10.667 38 35.334 71.5 74.001 100.5s80.667 45.167 126 48.5
c45.333 4.66699 80.5 -5 105.5 -29s31.833 -54.333 20.5 -91zM944.998 -54.9971c-145.333 -3.33301 -293.001 -11.667 -443.001 -25c-148 -12.667 -297.667 -30.334 -449 -53.001l58 271l215 29c30.667 164 67.667 326.667 111 488c40 150.667 90.667 314.667 152 492
c-46.667 -3.33301 -116 -9.66602 -208 -18.999l83 282l217 20c220.667 19.333 442.667 26.333 666 21l-87 -282c-167.333 0 -336 -4.66699 -506 -14l255 -76c-27.333 -88 -54.666 -182 -81.999 -282c-48 -178.667 -92.333 -375 -133 -589l210 9z" />
    <glyph glyph-name="Ntilde" unicode="&#xd1;" horiz-adv-x="1556" 
d="M1652 1686c-94.667 -64.667 -194.333 -101.667 -299 -111c-40.667 -4.66699 -87.5 7.33301 -140.5 36s-102.833 40.667 -149.5 36c-113.333 -10 -223.666 -52 -330.999 -126l56 210c101.333 73.333 207.333 115.333 318 126c51.333 4.66699 103.333 -7.33301 156 -36
s103.667 -40.667 153 -36c103.333 9.33301 200.666 46.333 291.999 111zM1442 20l-377 -56.001l-358 635c-22 -75.333 -38.667 -134 -50 -176c-43.333 -158 -84.333 -326.333 -123 -505l-397 -34c54 246.667 114 494.667 180 744c44.667 167.333 92.667 333.333 144 498
l-63 108l406 206l382 -797c19.333 108.667 44 218 74 328c47.333 177.333 104.666 340 171.999 488l350 -97c-66 -193.333 -124 -381.666 -174 -564.999c-69.333 -258 -124.666 -517 -165.999 -777z" />
    <glyph glyph-name="Ograve" unicode="&#xd2;" horiz-adv-x="1565" 
d="M1265 1625l-36 -63l-514 6l48 176zM1667 708c-48.667 -185.333 -158.334 -352.334 -329.001 -501.001c-183.333 -162 -383.666 -252 -600.999 -270c-220.667 -19.333 -377 49.334 -469 206.001c-77.333 136.667 -90.333 301.667 -39 495
c53.333 197.333 161.333 375.333 324 534c183.333 181.333 389.333 281.666 618 300.999c296 26 486 -62.333 570 -265l-130 -85c82 -111.333 100.667 -249.666 56 -414.999zM1396 1012c-44.667 103.333 -148.667 147.666 -312 132.999
c-125.333 -11.333 -234.666 -72.666 -327.999 -183.999c-75.333 -88.667 -128.333 -190 -159 -304s-32.667 -209 -6 -285c34 -98.667 113 -142.334 237 -131.001c111.333 8.66699 213.666 61.334 306.999 158.001c79.333 82 132.333 172.667 159 272
c27.333 100 16 183 -34 249z" />
    <glyph glyph-name="Oacute" unicode="&#xd3;" horiz-adv-x="1565" 
d="M1671 1652l-541 -99l-2 60l591 215zM1652 707c-48.667 -184.667 -158.336 -352 -329.003 -502c-183.333 -162 -383.666 -252 -600.999 -270c-220.667 -19.333 -377 49.667 -469 207c-77.333 137.333 -90.666 302.333 -39.999 495c54 196.667 162.333 374.667 325 534
c182.667 180.667 388.334 280.667 617.001 300c296 26 486 -62 570 -264l-129 -86c82 -111.333 100.667 -249.333 56 -414zM1382 1010c-45.333 104 -150 148.336 -314 133.003c-124.667 -10 -233.667 -71.333 -327 -184c-75.333 -88.667 -128.333 -189.834 -159 -303.501
s-33 -208.834 -7 -285.501c34 -98.667 113 -142.334 237 -131.001c112 10 214.667 63 308 159c79.333 82 132 172.333 158 271c27.333 100 16 183.667 -34 251z" />
    <glyph glyph-name="Ocircumflex" unicode="&#xd4;" horiz-adv-x="1567" 
d="M1556 1615l-247 -26l-94 66l-143 -81l-256 -14l314 208l225 22zM1661 707c-49.333 -184.667 -159.334 -352 -330.001 -502c-183.333 -160.667 -383.666 -250.667 -600.999 -270c-220.667 -19.333 -377 50 -469 208c-77.333 136.667 -90.333 301.667 -39 495
c53.333 197.333 161.333 375.333 324 534c183.333 180 389.333 280.333 618 301c296 26 486 -62.667 570 -266l-130 -86c82 -111.333 101 -249.333 57 -414zM1389 1010c-44 104 -148 149.001 -312 135.001c-125.333 -11.333 -234.666 -73.333 -327.999 -186
c-74.667 -88.667 -127.334 -189.334 -158.001 -302.001c-31.333 -114 -33.666 -209 -6.99902 -285c34 -98.667 113 -143 237 -133c111.333 10 213.666 63.333 306.999 160c80 82 133 172 159 270c27.333 101.333 16 185 -34 251z" />
    <glyph glyph-name="Otilde" unicode="&#xd5;" horiz-adv-x="1584" 
d="M1661 1688c-94.667 -66 -194.332 -103.667 -298.999 -113c-41.333 -3.33301 -88.333 9 -141 37s-102.334 39.667 -149.001 35c-114 -9.33301 -224.333 -51.333 -331 -126l56 211c101.333 74 207 115.667 317 125c50.667 4.66699 102.667 -7 156 -35
s104.333 -39.667 153 -35c104 9.33301 201.333 46.333 292 111zM1669 708c-48.667 -185.333 -158.336 -352.334 -329.003 -501.001c-183.333 -162 -383.666 -252 -600.999 -270c-220.667 -19.333 -377 49.334 -469 206.001c-77.333 138 -90.666 303 -39.999 495
c54 197.333 162.333 375.333 325 534c182.667 181.333 388.334 281.666 617.001 300.999c296 26 486.333 -62.333 571 -265l-130 -85c82 -111.333 100.667 -249.666 56 -414.999zM1398 1012c-44.667 103.333 -149 147.666 -313 132.999
c-124.667 -11.333 -233.667 -72.666 -327 -183.999c-75.333 -88.667 -128.333 -190 -159 -304s-33 -209 -7 -285c34 -98.667 113 -142.334 237 -131.001c112 8.66699 214.667 61.334 308 158.001c79.333 82 132 172.667 158 272c27.333 100 16 183 -34 249z" />
    <glyph glyph-name="Odieresis" unicode="&#xd6;" horiz-adv-x="1580" 
d="M1640 1729c-10 -41.333 -37 -78.167 -81 -110.5s-90.333 -50.833 -139 -55.5c-50 -4.66699 -88.333 6.16602 -115 32.499s-34.334 59.833 -23.001 100.5c10 41.333 36.333 77.833 79 109.5s88.334 49.834 137.001 54.501c49.333 3.33301 87.833 -7.5 115.5 -32.5
s36.5 -57.833 26.5 -98.5zM1135 1696c-9.33301 -37.333 -33.502 -70.5 -72.502 -99.5s-81.5 -45.833 -127.5 -50.5c-45.333 -3.33301 -80.166 6.66699 -104.499 30s-31.5 53.833 -21.5 91.5s34.333 71 73 100s80.334 45.833 125.001 50.5
c45.333 3.33301 80.5 -6.66699 105.5 -30s32.5 -54 22.5 -92zM1667 707.999c-48.667 -185.333 -158.334 -352.334 -329.001 -501.001c-183.333 -162 -383.666 -252 -600.999 -270c-220.667 -19.333 -377 49.334 -469 206.001c-77.333 136.667 -90.333 301.667 -39 495
c53.333 197.333 161.333 375.333 324 534c183.333 181.333 389.333 281.666 618 300.999c296 26 486 -62.333 570 -265l-130 -85c82 -111.333 100.667 -249.666 56 -414.999zM1396 1012c-44.667 103.333 -148.667 147.666 -312 132.999
c-125.333 -11.333 -234.666 -72.666 -327.999 -183.999c-75.333 -88.667 -128.333 -190 -159 -304s-32.667 -209 -6 -285c34 -98.667 113 -142.334 237 -131.001c111.333 8.66699 213.666 61.334 306.999 158.001c79.333 82 132.333 172.667 159 272
c27.333 100 16 183 -34 249z" />
    <glyph glyph-name="multiply" unicode="&#xd7;" horiz-adv-x="1258" 
d="M1292 973l-282 -200l181 -162l-234 -159l-177 157l-278 -196l-174 118l295 213l-188 142l234 160l186 -140l259 183z" />
    <glyph glyph-name="Oslash" unicode="&#xd8;" horiz-adv-x="1703" 
d="M1934 1285l-243 -184c67.333 -102.667 79.333 -232 36 -388c-48.667 -185.333 -158 -352.333 -328 -501c-182.667 -162 -382.667 -252 -600 -270c-194.667 -17.333 -338.667 34.334 -432 155.001l-147 -111l-114 161l172 136c-26 112.667 -22 232.667 12 360
c53.333 197.333 161.333 375.666 324 534.999c183.333 180.667 389.333 280.667 618 300c190 17.333 337.333 -14 442 -94l149 118zM1348 1125c-54.667 24 -122.334 32.332 -203.001 24.999c-125.333 -11.333 -234.666 -72.666 -327.999 -183.999
c-74.667 -88.667 -127.334 -190 -158.001 -304c-9.33301 -32.667 -15.666 -64 -18.999 -94zM1355 675.999c17.333 67.333 19 125.334 5 174.001l-686 -521c41.333 -64.667 112.333 -92.334 213 -83.001c112.667 10 215.667 62.667 309 158c80 82 133 172.667 159 272z" />
    <glyph glyph-name="Ugrave" unicode="&#xd9;" horiz-adv-x="1533" 
d="M1251 1623l-36 -61l-512 5l46 176zM1616 660c-46.667 -174 -150.666 -331.332 -311.999 -471.999c-172 -150.667 -361.333 -235 -568 -253c-212 -18 -364 46.333 -456 193c-80.667 130 -97.334 286 -50.001 468l219 814l368 17l-218 -813
c-26 -96.667 -24.333 -181.334 5 -254.001c34 -90 105 -130.333 213 -121c106 9.33301 197.333 56 274 140c62 68 105.667 148.667 131 242l222 831l389 17z" />
    <glyph glyph-name="Uacute" unicode="&#xda;" horiz-adv-x="1534" 
d="M1655 1650l-541 -99l-1 60l590 215zM1599 659c-46.667 -174 -150.666 -331.67 -311.999 -473.003c-172 -150 -361.333 -233.667 -568 -251c-212 -19.333 -364 44.334 -456 191.001c-80.667 130 -97.334 286 -50.001 468l219 814l368 17l-218 -812
c-26 -96.667 -24.333 -181.667 5 -255c34 -89.333 105 -129.666 213 -120.999c106 10.667 197 57.334 273 140.001c62.667 68.667 106.667 149.667 132 243l222 831l389 17z" />
    <glyph glyph-name="Ucircumflex" unicode="&#xdb;" horiz-adv-x="1538" 
d="M1546 1615l-247 -26l-96 65l-141 -80l-258 -14l314 206l227 24zM1609 660c-46.667 -174 -150.668 -331.333 -312.001 -472c-172 -150.667 -361.333 -235 -568 -253c-212 -18 -364 45.667 -456 191c-80.667 130 -97 286.667 -49 470l218 814l369 17l-219 -813
c-26 -97.333 -24.333 -182.666 5 -255.999c34.667 -88.667 106 -128.334 214 -119.001c105.333 9.33301 196.333 55.333 273 138c62.667 68.667 106.334 149.667 131.001 243l222 832l389 17z" />
    <glyph glyph-name="Udieresis" unicode="&#xdc;" horiz-adv-x="1550" 
d="M1625 1727c-10.667 -40.667 -37.835 -77.334 -81.502 -110.001s-90 -51.167 -139 -55.5s-87.167 6.5 -114.5 32.5s-35.333 59.667 -24 101c10.667 40.667 37.334 77 80.001 109s88.334 50.167 137.001 54.5s87 -6.16699 115 -31.5s37 -58.666 27 -99.999zM1120 1695
c-9.33301 -38 -33.668 -71.501 -73.001 -100.501s-81.666 -45.5 -126.999 -49.5s-80 5.66699 -104 29s-31.333 54 -22 92c10 37.333 34.333 70.5 73 99.5s80.667 45.833 126 50.5c44.667 3.33301 79.5 -6.66699 104.5 -30s32.5 -53.666 22.5 -90.999zM1615 659.999
c-46.667 -174 -151.001 -331.332 -313.001 -471.999c-172 -150.667 -361.333 -235 -568 -253c-212 -18 -364 46.333 -456 193c-80.667 130 -97 286 -49 468l218 814l369 17l-219 -813c-26 -96.667 -24.333 -181.334 5 -254.001c34.667 -90 106 -130.333 214 -121
c106 9.33301 197 55.333 273 138c62.667 68.667 106.334 150 131.001 244l222 831l389 17z" />
    <glyph glyph-name="Yacute" unicode="&#xdd;" horiz-adv-x="1381" 
d="M1585 1645l-542 -99l-4 60l593 213zM1700 1439c-178.667 -206 -384.666 -468.333 -617.999 -787c-32 -44.667 -74.667 -110.667 -128 -198c-21.333 -43.333 -42.333 -103 -63 -179c-30.667 -116 -57 -228 -79 -336l-392 -14c24 120.667 50 234 78 340
c27.333 100.667 50.666 179 69.999 235c-43.333 99.333 -82.333 242 -117 428c-33.333 175.333 -53.333 323.333 -60 444l404 68c8 -94 16.667 -188.333 26 -283c11.333 -110 34 -198 68 -264c150 248 294.667 438 434 570z" />
    <glyph glyph-name="Thorn" unicode="&#xde;" horiz-adv-x="1707" 
d="M1826 879c-8 -28.667 -18.333 -55.332 -31 -79.999c-88.667 -181.333 -235.334 -329.333 -440.001 -444c-183.333 -102.667 -391.666 -168 -624.999 -196l-73 -231l-362 -30l345 1044c-42 -4.66699 -87 -13.334 -135 -26.001l19 279c70.667 16 140.667 27.333 210 34
l70 211l305 -128l-20 -59c563.333 18 809 -106.667 737 -374zM1398 773.002c22.667 86.667 -17.668 143.998 -121.001 171.998c-75.333 20.667 -175 25.334 -299 14.001c-41.333 -3.33301 -89.666 -5.66602 -144.999 -6.99902l107 -152l-119 -363
c119.333 11.333 234.333 45 345 101c130.667 64.667 208 143 232 235z" />
    <glyph glyph-name="germandbls" unicode="&#xdf;" horiz-adv-x="1860" 
d="M1761 435c-37.333 -137.333 -144.668 -251.665 -322.001 -342.998c-150.667 -76 -315.667 -122 -495 -138c-93.333 -8 -178.666 -13.667 -255.999 -17l-75 -225l-326 34l59 191c-48.667 2 -91.667 4.33301 -129 7l128 268c27.333 -3.33301 55.666 -5 84.999 -5
c64 182.667 167.667 497 311 943c-51.333 -8 -97 -17 -137 -27l22 282c70.667 15.333 144.667 26.666 222 33.999c41.333 3.33301 103.5 9.5 186.5 18.5l187.5 20.5c550.667 48 792.334 -53.333 725.001 -304c-38.667 -144.667 -167.667 -279.334 -387 -404.001
c172.667 -75.333 239.667 -187 201 -335zM1522 1068c30 109.333 -113.333 149.999 -430 121.999l-97 -9c-13.333 -1.33301 -49.333 -4.66602 -108 -9.99902l180 -75l-101 -277h5c330 30 513.667 113 551 249zM1384 422c19.333 73.333 -17.668 125.665 -111.001 156.998
c-71.333 22.667 -158.333 29.334 -261 20.001c-13.333 -1.33301 -55 -6 -125 -14l-109 -367c100 0 163.667 1.33301 191 4c80 6.66699 159.667 25.334 239 56.001c102.667 40 161.334 88 176.001 144z" />
    <glyph glyph-name="agrave" unicode="&#xe0;" horiz-adv-x="1167" 
d="M1079 1609l-38 -63l-512 5l46 176zM1179 275l-321 -28.999l4 165c-83.333 11.333 -174.333 12.666 -273 3.99902l-70 -9l-86 -196l-317 -29c149.333 319.333 369 738.666 659 1258l418 13c-37.333 -341.333 -42 -733.666 -14 -1177zM872 631.001
c0 86.667 -0.667969 173.335 -2.00098 260.002c2.66699 102 9.66699 190.667 21 266c-64.667 -118 -156.334 -296 -275.001 -534c22.667 3.33301 43.334 5.66602 62.001 6.99902c66.667 5.33301 131.334 5.66602 194.001 0.999023z" />
    <glyph glyph-name="aacute" unicode="&#xe1;" horiz-adv-x="1171" 
d="M1466 1633l-541 -97l-3 60l590 213zM1143 271l-320.001 -27.001l3 164c-83.333 11.333 -174.333 12.333 -273 3c-20.667 -0.666992 -44 -3 -70 -7l-85 -197l-318 -28c149.333 318.667 369 737.334 659 1256l420 14c-37.333 -341.333 -42.666 -734 -15.999 -1178z
M835.999 627.999c0 86.667 -0.333984 173.668 -1.00098 261.001c2 101.333 8.66699 189.666 20 264.999c-64.667 -118.667 -156.334 -296.667 -275.001 -534c22.667 3.33301 43.334 5.33301 62.001 6c66.667 6 131.334 6.66699 194.001 2z" />
    <glyph glyph-name="acircumflex" unicode="&#xe2;" horiz-adv-x="1155" 
d="M1353 1597l-247 -25l-92 65l-145 -81l-255 -13l314 206l224 24zM1155 273l-320 -29l3 166c-83.333 10 -174.333 11 -273 3c-20.667 -2 -44 -5 -70 -9l-85 -197l-318 -28c149.333 320 369 739.333 659 1258l420 14c-38 -341.333 -43.333 -734 -16 -1178zM848 630
c0 86 -0.334961 172.332 -1.00195 258.999c2 102.667 8.66699 191.334 20 266.001l-275 -534c22.667 2.66699 43.334 5 62.001 7c66.667 6 131.334 6.66699 194.001 2z" />
    <glyph glyph-name="atilde" unicode="&#xe3;" horiz-adv-x="1224" 
d="M1481 1671c-94 -64.667 -193.332 -101.667 -297.999 -111c-41.333 -3.33301 -88.333 8.83398 -141 36.501s-102 39.5 -148 35.5c-116 -10.667 -227 -53 -333 -127l59 210c98.667 74 203.667 116 315 126c51.333 4.66699 103.666 -6.83301 156.999 -34.5
s103.333 -39.834 150 -36.501c104.667 8.66699 202.667 46 294 112zM1188 275l-321.001 -28l3 164c-82.667 11.333 -173.667 12.666 -273 3.99902c-20 -1.33301 -43.333 -3.66602 -70 -6.99902l-85 -198l-317 -27c148.667 318 368 736.667 658 1256l418 15
c-37.333 -341.333 -41.666 -734.333 -12.999 -1179zM881 631c0 88 -0.666992 175.333 -2 262c2 100.667 8.66699 189.334 20 266.001c-64.667 -119.333 -156 -298 -274 -536c22.667 3.33301 43 5.66602 61 6.99902c67.333 6.66699 132.333 7 195 1z" />
    <glyph glyph-name="adieresis" unicode="&#xe4;" horiz-adv-x="1212" 
d="M1459 1712c-11.333 -41.333 -38.667 -78.166 -82 -110.499s-90 -50.166 -140 -53.499c-48.667 -4.66699 -86.667 6.16602 -114 32.499s-35.333 59.833 -24 100.5c10 41.333 36.333 77.833 79 109.5s88.667 49.167 138 52.5c50 4.66699 89 -5.83301 117 -31.5
s36.667 -58.834 26 -99.501zM951.999 1679c-8.66699 -36 -32.666 -68.833 -71.999 -98.5s-81.333 -46.167 -126 -49.5c-45.333 -4.66699 -80.5 5 -105.5 29s-32.833 54.667 -23.5 92c10 37.333 34.667 70.5 74 99.5s81.666 45.5 126.999 49.5s80.333 -5.83301 105 -29.5
s31.667 -54.5 21 -92.5zM1183 275l-321.001 -28.001l3 164c-82.667 11.333 -173.667 12.666 -273 3.99902c-20.667 -1.33301 -44 -3.66602 -70 -6.99902l-85 -198l-318 -27c149.333 318 369 736.667 659 1256l418 13c-37.333 -341.333 -41.666 -733.666 -12.999 -1177z
M875.999 630.999c0 86.667 -0.666992 174.002 -2 262.002c2 100.667 8.66699 188.667 20 264c-64.667 -118 -156 -296 -274 -534c22.667 3.33301 43 5.66602 61 6.99902c67.333 5.33301 132.333 5.66602 195 0.999023z" />
    <glyph glyph-name="aring" unicode="&#xe5;" horiz-adv-x="1164" 
d="M1270 1744c-14.667 -55.333 -50.832 -104.333 -108.499 -147s-119.834 -67 -186.501 -73c-65.333 -5.33301 -116.5 9.33398 -153.5 44.001s-48 79.167 -33 133.5s51.167 102.833 108.5 145.5s118.333 67 183 73c67.333 6.66699 119.5 -7.33301 156.5 -42
s48.167 -79.334 33.5 -134.001zM1159 273l-321 -29l3 166c-82.667 11.333 -173.667 12.333 -273 3c-20 -2 -43.333 -5 -70 -9l-85 -196l-317 -29c148.667 320 368 739.333 658 1258l420 14c-37.333 -341.333 -42.333 -734 -15 -1178zM1132 1729
c6.66699 21.333 2 39.5 -14 54.5s-37.667 21.333 -65 19s-53 -12.666 -77 -30.999s-38.667 -38.833 -44 -61.5c-6.66699 -21.333 -2.16699 -39.5 13.5 -54.5s37.167 -21.333 64.5 -19s53 12.666 77 30.999s39 38.833 45 61.5zM852.002 630c0 86 -0.666992 172.333 -2 259
c2 102.667 8.66699 191.334 20 266.001c-64.667 -118 -156 -296 -274 -534c22.667 3.33301 43 5.66602 61 6.99902c67.333 6 132.333 6.66699 195 2z" />
    <glyph glyph-name="ae" unicode="&#xe6;" horiz-adv-x="1744" 
d="M2016 1527l-86.9961 -247c-93.333 -4.66699 -189.666 -11 -288.999 -19c-82 -8 -157.667 -16 -227 -24c-13.333 -32.667 -23 -61.667 -29 -87c-11.333 -39.333 -22 -89.333 -32 -150c74.667 10 151.334 18.5 230.001 25.5s153.667 12.167 225 15.5l-63 -241
c-64.667 -0.666992 -131 -4 -199 -10c-85.333 -8 -177 -19.333 -275 -34c-3.33301 -9.33301 -6.33301 -17.333 -9 -24c-2 -10 -4.5 -25.5 -7.5 -46.5s-6.16699 -36.833 -9.5 -47.5c-8.66699 -37.333 -15.334 -76 -20.001 -116c85.333 10.667 171.666 20 258.999 28
c88.667 7.33301 174.667 13 258 17l-67 -250c-148 -6.66699 -282.667 -15.667 -404 -27c-88.667 -6.66699 -235 -23 -439 -49l34 196c-82.667 11.333 -172.334 12.333 -269.001 3c-18.667 -0.666992 -40.334 -3 -65.001 -7l-127 -226l-296 5
c187.333 306.667 463.666 720 828.999 1240c275.333 10.667 576.666 30 903.999 58zM1062 1205c-41.333 -64 -109.5 -157.33 -204.5 -279.997s-162.833 -215.334 -203.5 -278.001c23.333 3.33301 43.666 5.66602 60.999 6.99902
c64.667 5.33301 128.334 5.66602 191.001 0.999023c59.333 220 111.333 403.333 156 550z" />
    <glyph glyph-name="egrave" unicode="&#xe8;" horiz-adv-x="1104" 
d="M1067 1608l-36 -63l-512 6l46 176zM1434 1488l-79.001 -242.001c-92 -4.66699 -189.333 -11.667 -292 -21c-86 -8 -165 -16 -237 -24l-31 -104c-12 -45.333 -22 -92 -30 -140c74 10.667 151.667 19.334 233 26.001c83.333 8 161.333 13 234 15l-66 -245
c-80 -1.33301 -157.333 -5.33301 -232 -12c-75.333 -6 -154 -15.667 -236 -29c-19.333 -42 -34 -83 -44 -123c-11.333 -40 -18.333 -81 -21 -123c83.333 11.333 172 21 266 29c92.667 8 180.334 14.333 263.001 19l-65 -246c-146.667 -8 -287.667 -17.667 -423 -29
c-134 -11.333 -276.333 -26.666 -427 -45.999c36.667 174 79 349.333 127 526c43.333 161.333 89.333 317.666 138 468.999l-125 -7l53 229c242.667 11.333 459 25.333 649 42c112.667 9.33301 227.667 21.333 345 36z" />
    <glyph glyph-name="eacute" unicode="&#xe9;" horiz-adv-x="1137" 
d="M1466 1633l-541 -97l-2 60l589 213zM1410 1485l-79.001 -240.998c-92 -4.66699 -189.333 -11.334 -292 -20.001c-86 -8 -164.333 -16 -235 -24c-11.333 -33.333 -22.333 -68 -33 -104c-12 -46 -22 -92.667 -30 -140c74 10 152 18.333 234 25
c82.667 7.33301 160.334 12.666 233.001 15.999l-66 -246c-80 -1.33301 -157.333 -5.33301 -232 -12c-74 -6.66699 -152.667 -16.334 -236 -29.001c-19.333 -43.333 -34 -84.333 -44 -123c-11.333 -40 -18.333 -81 -21 -123c83.333 11.333 172.333 21 267 29
c92 8 179.333 13.667 262 17l-65 -245c-146.667 -7.33301 -287.667 -16.666 -423 -27.999c-134 -12.667 -276 -28 -426 -46c37.333 174 79.333 348.667 126 524c43.333 161.333 90 318.333 140 471l-126 -7l52 227c242.667 12.667 459 27.667 649 45
c112.667 8.66699 227.667 20 345 34z" />
    <glyph glyph-name="ecircumflex" unicode="&#xea;" horiz-adv-x="1116" 
d="M1355 1597l-247 -25l-94 65l-144 -81l-256 -13l314 206l226 24zM1422 1487l-79.001 -242.996c-92 -4.66699 -189.333 -11.334 -292 -20.001c-86 -7.33301 -164.333 -15.333 -235 -24c-11.333 -33.333 -22.333 -68 -33 -104c-12 -46 -22 -92.333 -30 -139
c74 9.33301 151.667 18 233 26c83.333 6.66699 161.333 11.667 234 15l-66 -245c-80 -2.66699 -157.333 -6.66699 -232 -12c-74 -7.33301 -152.667 -17 -236 -29c-19.333 -43.333 -34 -85 -44 -125c-11.333 -40 -18.333 -80.333 -21 -121c83.333 10 172 19 266 27
c92.667 9.33301 180.334 15.666 263.001 18.999l-65 -246c-146.667 -6.66699 -287.667 -16.334 -423 -29.001c-134 -11.333 -276 -26.666 -426 -45.999c36 175.333 78 350.666 126 525.999c43.333 161.333 90 317.666 140 468.999l-127 -5l53 227
c242.667 12.667 459 27 649 43c112.667 10 227.667 22 345 36z" />
    <glyph glyph-name="edieresis" unicode="&#xeb;" horiz-adv-x="1149" 
d="M1442 1710c-11.333 -40.667 -38.332 -77.001 -80.999 -109.001s-89 -50.333 -139 -55s-88.333 6.16602 -115 32.499s-34.334 59.833 -23.001 100.5c10 41.333 36 77.833 78 109.5s88 49.834 138 54.501c50.667 3.33301 89.5 -7.66699 116.5 -33
s35.5 -58.666 25.5 -99.999zM935.001 1679c-8.66699 -37.333 -32.6699 -70.499 -72.0029 -99.499s-81.333 -45.833 -126 -50.5c-45.333 -3.33301 -80.166 6.66699 -104.499 30s-32.166 53.666 -23.499 90.999c10.667 38 35.334 71.5 74.001 100.5s80.667 45.167 126 48.5
c45.333 4.66699 80.5 -5 105.5 -29s31.833 -54.333 20.5 -91zM1432 1487l-79 -241.001c-92 -4.66699 -189 -11.667 -291 -21c-86.667 -8 -166 -16 -238 -24c-10 -32.667 -20 -67.334 -30 -104.001c-12.667 -45.333 -23 -92 -31 -140c74 10.667 152 19.334 234 26.001
c82.667 6.66699 160.667 11.667 234 15l-67 -245c-80 -1.33301 -157.333 -5.33301 -232 -12c-75.333 -6 -154 -15.667 -236 -29c-19.333 -42 -34 -83 -44 -123c-11.333 -40 -18.333 -81 -21 -123c83.333 11.333 172.333 21 267 29c92 8 179.667 13.667 263 17l-65 -244
c-146.667 -8 -288 -17.667 -424 -29c-134 -11.333 -276 -26.666 -426 -45.999c36 174 78 349.333 126 526c43.333 160 90 316.333 140 469l-126 -7l53 229c242 11.333 458 25.333 648 42c112.667 9.33301 227.667 21 345 35z" />
    <glyph glyph-name="igrave" unicode="&#xec;" horiz-adv-x="630" 
d="M1007 1603l-34 -64l-514 7l46 176zM864 1428c-80 -230.667 -146.002 -444.001 -198.002 -640.001c-51.333 -188.667 -94.666 -378.667 -129.999 -570l-318 -27c38.667 212.667 84.334 416.334 137.001 611.001c53.333 204 118.333 409.333 195 616z" />
    <glyph glyph-name="iacute" unicode="&#xed;" horiz-adv-x="633" 
d="M997 1592l-541 -97l-2 60l589 213zM855 1428c-79.333 -230.667 -145.333 -444.333 -198 -641c-50 -188 -93.333 -378 -130 -570l-317 -28c38.667 214 84 417.667 136 611c54 204 119 410 195 618z" />
    <glyph glyph-name="icircumflex" unicode="&#xee;" horiz-adv-x="799" 
d="M1176 1582l-248 -26l-95 65l-142 -80l-258 -14l315 207l225 24zM945 1435c-79.333 -229.333 -144.999 -442.667 -196.999 -640c-51.333 -188.667 -95.333 -378.667 -132 -570l-317 -27c38.667 212.667 84.667 416.334 138 611.001
c53.333 203.333 117.666 408.666 192.999 615.999z" />
    <glyph glyph-name="idieresis" unicode="&#xef;" horiz-adv-x="935" 
d="M1318 1700c-12 -41.333 -39.332 -78.166 -81.999 -110.499s-89 -50.833 -139 -55.5c-50 -3.33301 -88.333 8.16699 -115 34.5s-34.334 59.833 -23.001 100.5c10.667 41.333 37 77.5 79 108.5s88 48.833 138 53.5s88.667 -5.83301 116 -31.5s36 -58.834 26 -99.501z
M812.001 1667c-10 -37.333 -34.333 -70.5 -73 -99.5s-80.667 -45.167 -126 -48.5c-46 -4.66699 -81.167 5 -105.5 29s-31.833 54 -22.5 90c11.333 38 36 71.5 74 100.5s79.667 45.833 125 50.5c46 3.33301 81.5 -6.66699 106.5 -30s32.167 -54 21.5 -92zM1010 1442
c-79.333 -230.667 -145.332 -444.667 -197.999 -642c-50.667 -187.333 -93.667 -377.333 -129 -570l-319 -27c38.667 214 84.667 417.667 138 611c53.333 204 117.666 410 192.999 618z" />
    <glyph glyph-name="ntilde" unicode="&#xf1;" horiz-adv-x="1287" 
d="M1517 1674c-94 -64.667 -193.332 -101.667 -297.999 -111c-42.667 -4.66699 -90.167 7.33301 -142.5 36s-101.833 40.667 -148.5 36c-114.667 -10 -225 -52 -331 -126l58 210c99.333 74 204.666 116 315.999 126c51.333 4.66699 103.5 -7 156.5 -35
s103.167 -40.333 150.5 -37c104 9.33301 202 46.333 294 111zM1249 297l-303.998 -43.001l-285 507c-20 -67.333 -33.333 -114.333 -40 -141c-32 -120.667 -65 -255 -99 -403l-318 -28c41.333 192.667 89.666 391.334 144.999 596.001
c37.333 141.333 75.666 274 114.999 398l-52 87l326 165l306 -638c16.667 90 36.667 178.667 60 266c38.667 140 84 268.667 136 386l280 -77c-54.667 -159.333 -100.667 -310 -138 -452c-54.667 -204 -98.667 -411.667 -132 -623z" />
    <glyph glyph-name="ograve" unicode="&#xf2;" 
d="M1125 1613l-38 -63l-512 6l46 176zM1428 848c-40.667 -148.667 -128.665 -283.001 -263.998 -403.001c-146.667 -127.333 -307 -199 -481 -215c-178 -14.667 -302 41.333 -372 168c-62.667 110 -74.334 242 -35.001 396c43.333 158 130.666 300 261.999 426
c145.333 144.667 309.666 225 492.999 241c236.667 20.667 389 -50 457 -212l-104 -70c64.667 -87.333 79.334 -197.666 44.001 -330.999zM1210 1091c-35.333 82.667 -118.332 118.333 -248.999 107c-99.333 -9.33301 -186.333 -58.666 -261 -147.999
c-61.333 -70.667 -104 -151.667 -128 -243c-25.333 -90.667 -27 -166.667 -5 -228c26 -78.667 88.333 -113.667 187 -105c90 8 172 49.667 246 125c64.667 68 108 140.667 130 218c21.333 81.333 11.666 148.666 -29.001 201.999z" />
    <glyph glyph-name="oacute" unicode="&#xf3;" 
d="M1524 1638l-541 -97l-5 60l592 213zM1405 847c-41.333 -149.333 -129.666 -283.668 -264.999 -403.001c-146.667 -127.333 -307 -199 -481 -215c-177.333 -14.667 -301.333 41 -372 167c-62.667 110 -74 242 -34 396c42.667 158 129.667 300.333 261 427
c145.333 144 309.666 224 492.999 240c236.667 20.667 389 -49.666 457 -210.999l-104 -70c64.667 -88 79.667 -198.333 45 -331zM1186 1089c-35.333 82.667 -118.333 118.333 -249 107c-99.333 -8.66699 -186.333 -58 -261 -148
c-61.333 -70.667 -104 -151.334 -128 -242.001c-25.333 -91.333 -27 -167.666 -5 -228.999c26 -78.667 89 -114 189 -106c88.667 8 170 50 244 126c64.667 67.333 108 140.333 130 219c21.333 80.667 12.333 147 -27 199z" />
    <glyph glyph-name="ocircumflex" unicode="&#xf4;" 
d="M1413 1603l-247 -26l-93 65l-145 -80l-256 -14l316 206l224 24zM1417 847c-41.333 -148 -129.666 -282 -264.999 -402c-146.667 -128 -307 -199.667 -481 -215c-178 -15.333 -302 40 -372 166c-62.667 111.333 -74 243.333 -34 396c42.667 158 129.667 300.667 261 428
c145.333 143.333 309.666 223 492.999 239c236.667 20.667 389 -49.666 457 -210.999l-104 -69c64.667 -88.667 79.667 -199.334 45 -332.001zM1198 1091c-35.333 81.333 -118.332 116.333 -248.999 105c-99.333 -8 -186.333 -57.333 -261 -148
c-61.333 -69.333 -104 -150 -128 -242c-25.333 -91.333 -27 -167 -5 -227c26 -80 89 -115.333 189 -106c88.667 8 170 50 244 126c64.667 67.333 108 140 130 218c21.333 81.333 11.666 148 -29.001 200z" />
    <glyph glyph-name="otilde" unicode="&#xf5;" horiz-adv-x="1306" 
d="M1521 1674c-94.667 -64.667 -194.334 -101.667 -299.001 -111c-40.667 -3.33301 -87.5 9 -140.5 37s-102.167 39.667 -147.5 35c-116.667 -10 -227.667 -52 -333 -126l58 210c98.667 74 204 116 316 126c50.667 4.66699 102.5 -7 155.5 -35s103.5 -40.333 151.5 -37
c104.667 9.33301 202.334 47 293.001 113zM1430 848c-40.667 -148.667 -128.668 -282.334 -264.001 -401.001c-147.333 -128.667 -308 -201 -482 -217c-177.333 -14.667 -301.333 41.333 -372 168c-62.667 110 -74 242 -34 396c43.333 158 130.333 300 261 426
c146 144.667 310.667 225 494 241c236.667 20.667 389 -50 457 -212l-104 -70c64.667 -87.333 79.334 -197.666 44.001 -330.999zM1212 1091c-35.333 82.667 -118.333 118.331 -249 106.998c-99.333 -9.33301 -186.666 -58.666 -261.999 -147.999
c-61.333 -70.667 -104 -151.667 -128 -243c-24.667 -90.667 -26.334 -166.667 -5.00098 -228c26.667 -78.667 89.334 -113.667 188.001 -105c90 8 172 49.667 246 125c64.667 68 108 141.333 130 220c21.333 80.667 11.666 147.334 -29.001 200.001z" />
    <glyph glyph-name="odieresis" unicode="&#xf6;" horiz-adv-x="1299" 
d="M1500 1715c-11.333 -40.667 -38.833 -77.001 -82.5 -109.001s-90 -50.167 -139 -54.5s-87.167 6.5 -114.5 32.5s-35.333 59.333 -24 100c9.33301 41.333 35.5 77.833 78.5 109.5s89.167 49.5 138.5 53.5c50 4 89 -6.66699 117 -32s36.667 -58.666 26 -99.999zM993 1683
c-8.66699 -36.667 -32.667 -69.833 -72 -99.5s-81.666 -46.167 -126.999 -49.5c-44.667 -4.66699 -79.5 5 -104.5 29s-32.833 54.667 -23.5 92c10 38 34.667 71.5 74 100.5s81.666 45.167 126.999 48.5c45.333 4.66699 80.333 -5 105 -29s31.667 -54.667 21 -92zM1427 848
c-41.333 -148.667 -129.667 -283.001 -265 -403.001c-146.667 -127.333 -307 -199 -481 -215c-177.333 -14.667 -301.333 41.333 -372 168c-62.667 110 -74 242 -34 396c43.333 158 130.333 300 261 426c145.333 144.667 309.666 225 492.999 241
c236.667 20.667 389.334 -50 458.001 -212l-105 -70c65.333 -87.333 80.333 -197.666 45 -330.999zM1208 1091c-35.333 82.667 -118.332 118.332 -248.999 106.999c-98.667 -9.33301 -185.667 -58.666 -261 -147.999c-61.333 -70.667 -104 -151.667 -128 -243
c-25.333 -90.667 -27 -166.667 -5 -228c26 -78.667 88.667 -113.667 188 -105c89.333 7.33301 171 49 245 125c65.333 67.333 108.666 140 129.999 218c22 81.333 12.333 148 -29 200z" />
    <glyph glyph-name="divide" unicode="&#xf7;" horiz-adv-x="978" 
d="M927 1060c-10.667 -38.667 -37.334 -73.167 -80.001 -103.5s-87.667 -47.5 -135 -51.5c-48 -4 -86 6 -114 30s-36.667 54.667 -26 92c10 38.667 36.333 73.167 79 103.5s87.834 47.833 135.501 52.5s85.5 -5 113.5 -29s37 -55.333 27 -94zM1068 876l-76 -227.002
c-284.667 -25.333 -534 -50.666 -748 -75.999l94 239c83.333 10.667 172 20.334 266 29.001l193 17c96.667 8 187 14 271 18zM785 448.998c-10 -38.667 -35.1641 -72.501 -75.4971 -101.501s-84.5 -45.833 -132.5 -50.5c-46.667 -3.33301 -82.834 6.66699 -108.501 30
s-33.334 54.333 -23.001 93s35.666 72.834 75.999 102.501s83.833 46.5 130.5 50.5c48 4 84.667 -6 110 -30s33 -55.333 23 -94z" />
    <glyph glyph-name="oslash" unicode="&#xf8;" horiz-adv-x="1391" 
d="M1637 1309l-195 -146.999c53.333 -80.667 63.666 -184 30.999 -310c-41.333 -149.333 -129.666 -283 -264.999 -401c-146.667 -128.667 -307 -200.334 -481 -215.001c-154.667 -14 -269.667 26.667 -345 122l-116 -87l-92 128l138 110c-20 90.667 -17 186.667 9 288
c43.333 158 129.666 300.333 258.999 427c146.667 144 311.667 224 495 240c152.667 14 270.334 -11 353.001 -75l122 94zM1166 1181c-41.333 19.333 -94.999 26.001 -160.999 20.001c-98.667 -8.66699 -186.334 -58 -263.001 -148c-60 -70.667 -102 -151.334 -126 -242.001
c-5.33301 -22 -10 -47 -14 -75zM1174 823.002c14 54.667 15.333 101.333 4 140l-550 -419c32 -50.667 89 -72.667 171 -66c88.667 8 170.334 50 245.001 126c65.333 67.333 108.666 140.333 129.999 219z" />
    <glyph glyph-name="ugrave" unicode="&#xf9;" horiz-adv-x="1254" 
d="M1114 1613l-35 -63l-512 5l46 176zM1388 811c-38 -140 -121.666 -266.334 -250.999 -379.001c-138 -119.333 -289.333 -186.666 -454 -201.999c-170 -14.667 -291.333 36.666 -364 153.999c-64.667 104.667 -77.667 229.667 -39 375l174 651l295 13l-174 -650
c-20.667 -77.333 -20 -145 2 -203c29.333 -71.333 86.666 -103.666 171.999 -96.999c83.333 8 154.666 45 213.999 111c46.667 53.333 82.334 118 107.001 194l196 668l296 11z" />
    <glyph glyph-name="uacute" unicode="&#xfa;" horiz-adv-x="1256" 
d="M1512 1638l-541 -99l-3 60l590 215zM1362 807c-37.333 -138.667 -120.334 -264.333 -249.001 -377c-138.667 -119.333 -290.667 -186.333 -456 -201c-169.333 -14.667 -290.333 36.333 -363 153c-65.333 104 -78.666 229.333 -39.999 376l174 650l296 14l-174 -651
c-20.667 -77.333 -20.334 -145.333 0.999023 -204c30 -72 87.667 -104 173 -96c82.667 6.66699 153.667 43.667 213 111c46.667 53.333 82.334 118.333 107.001 195l197 667l295 12z" />
    <glyph glyph-name="ucircumflex" unicode="&#xfb;" horiz-adv-x="1258" 
d="M1405 1601l-248 -24l-92 65l-145 -82l-256 -14l316 208l223 23zM1376 809c-38 -138.667 -121.331 -264.999 -249.998 -378.999c-138.667 -119.333 -290.334 -186 -455.001 -200c-170 -14.667 -291.333 36.666 -364 153.999c-64.667 103.333 -77.667 228 -39 374l174 652
l295 13l-174 -652c-20.667 -76 -20 -143.667 2 -203c29.333 -71.333 86.666 -103 171.999 -95c83.333 6.66699 154.666 43.667 213.999 111c46.667 53.333 82.334 118 107.001 194l196 666l296 12z" />
    <glyph glyph-name="udieresis" unicode="&#xfc;" 
d="M1490 1715c-11.333 -40.667 -38.334 -77.334 -81.001 -110.001s-89 -51.167 -139 -55.5s-88.5 6.5 -115.5 32.5s-34.5 59.667 -22.5 101c8.66699 40.667 34.334 77 77.001 109s89 50.167 139 54.5s88.667 -6.16699 116 -31.5s36 -58.666 26 -99.999zM984.999 1683
c-9.33301 -38 -33.832 -71.501 -73.499 -100.501s-82.5 -45.5 -128.5 -49.5c-44 -4 -78.333 5.66699 -103 29s-32.334 54 -23.001 92c10 37.333 34.333 70.5 73 99.5s81 45.833 127 50.5c45.333 3.33301 80.5 -6.66699 105.5 -30s32.5 -53.666 22.5 -90.999zM1386 810.999
c-38 -140 -121.669 -266.334 -251.002 -379.001c-138 -119.333 -289.333 -186.666 -454 -201.999c-169.333 -14.667 -290.666 36.666 -363.999 153.999c-64.667 103.333 -77.667 228.333 -39 375l174 651l296 13l-175 -650c-20 -77.333 -19.333 -145 2 -203
c30 -71.333 87.667 -103.666 173 -96.999c82.667 8 153.667 45 213 111c46.667 53.333 82.334 118 107.001 194l197 668l295 11z" />
    <glyph glyph-name="yacute" unicode="&#xfd;" horiz-adv-x="1123" 
d="M1452 1633l-541 -99l-1 60l588 215zM1440 1432c-135.333 -157.333 -299.667 -367.33 -493 -629.997c-24.667 -34 -59.334 -87 -104.001 -159c-16 -30.667 -32.333 -77.667 -49 -141c-27.333 -102.667 -49.666 -197.334 -66.999 -284.001l-316 -11
c22 100 43.667 191.333 65 274c17.333 67.333 35 128.333 53 183c-26 64.667 -55.667 184.667 -89 360c-27.333 149.333 -43 267.666 -47 354.999l324 55c5.33301 -78.667 11 -157.334 17 -236.001c10 -92 28 -165.333 54 -220c131.333 217.333 248 375 350 473z" />
    <glyph glyph-name="thorn" unicode="&#xfe;" horiz-adv-x="1413" 
d="M1562 964c-6 -24 -14 -45 -24 -63c-70.667 -144.667 -188 -263 -352 -355c-148.667 -84 -315.334 -137 -500.001 -159l-55 -160l-290 -26l280 814c-37.333 -4 -76 -11.333 -116 -22l16 224c58.667 13.333 118.334 23 179.001 29l61 191l246 -104l-26 -70
c444 12.667 637.667 -87 581 -299zM1219 879c32.667 122 -79.667 171.333 -337 148c-35.333 -2 -70.333 -3.66699 -105 -5l88 -95l-109 -318c96.667 9.33301 189 36 277 80c103.333 52.667 165.333 116 186 190z" />
    <glyph glyph-name="ydieresis" unicode="&#xff;" horiz-adv-x="1142" 
d="M1425 1710c-11.333 -40.667 -38.332 -77.333 -80.999 -110s-89 -51.167 -139 -55.5s-88.333 6.5 -115 32.5s-34.334 59.667 -23.001 101c10 40.667 36 77 78 109s88 50 138 54c50.667 4 89.5 -6.83301 116.5 -32.5s35.5 -58.5 25.5 -98.5zM918.001 1678
c-8.66699 -38 -32.6699 -71.502 -72.0029 -100.502s-81.333 -45.833 -126 -50.5c-45.333 -3.33301 -80.166 6.66699 -104.499 30s-32.166 54 -23.499 92c10.667 37.333 35.334 70.5 74.001 99.5s80.667 45.167 126 48.5c45.333 4.66699 80.5 -4.66602 105.5 -27.999
s31.833 -53.666 20.5 -90.999zM1459 1434c-135.333 -157.333 -299.667 -367.331 -493 -629.998c-25.333 -34 -60 -87 -104 -159c-16 -30.667 -32.667 -78 -50 -142c-27.333 -102 -50 -196.333 -68 -283l-314 -12c22 100 43.667 191.667 65 275
c17.333 67.333 35 127.666 53 180.999c-26 66 -55.667 186.667 -89 362c-27.333 148.667 -43.333 267 -48 355l325 54c5.33301 -78 11 -156.333 17 -235c10 -92 28 -165.333 54 -220c131.333 217.333 248 374.666 350 471.999z" />
    <glyph glyph-name="OE" unicode="&#x152;" horiz-adv-x="3019" 
d="M3092 1632l-96.998 -303.003c-124 -6.66699 -244.667 -15 -362 -25c-97.333 -8 -198 -18.333 -302 -31c-12 -35.333 -24 -74.666 -36 -117.999c-16.667 -62 -30 -124.333 -40 -187c97.333 13.333 194.333 24 291 32c96 9.33301 193.333 15.666 292 18.999l-82 -307
c-95.333 -1.33301 -192.666 -6.66602 -292 -15.999c-96.667 -8 -194.334 -20 -293.001 -36c-22 -50.667 -39.667 -102.334 -53 -155.001c-14 -51.333 -23.667 -102 -29 -152c112.667 14.667 223.667 27.334 333 38.001c109.333 8.66699 219 15.334 329 20.001l-80 -305
c-176.667 -9.33301 -353 -21.333 -529 -36c-175.333 -16 -353.333 -35.333 -534 -58c31.333 151.333 62.666 289 93.999 413c-91.333 -130 -204 -236.333 -338 -319c-143.333 -88.667 -292 -140 -446 -154c-222 -19.333 -378.333 49.667 -469 207
c-78.667 137.333 -91.667 302.333 -39 495c53.333 196.667 161.333 374.667 324 534c183.333 180.667 389.333 280.667 618 300c200 18.667 353.333 -17.666 460 -108.999l36 154c304 14.667 572 32 804 52c135.333 12 282 27.667 440 47zM1939 1256l-33 -2
c6 -10 11.333 -20 16 -30l-130 -86c34 -46.667 56.667 -92 68 -136c30 103.333 56.333 188 79 254zM1577 1027c-44.667 104 -148.668 148.668 -312.001 134.001c-125.333 -10.667 -235.333 -72.334 -330 -185.001c-74 -88.667 -126.667 -190 -158 -304
c-30 -112.667 -32 -207.667 -6 -285c34.667 -97.333 113.334 -141 236.001 -131c112.667 10 215.667 63 309 159c79.333 82 131.666 172.333 156.999 271c28.667 100 17.334 183.667 -33.999 251z" />
    <glyph glyph-name="oe" unicode="&#x153;" horiz-adv-x="2522" 
d="M2598 1589l-80.9961 -241.002c-121.333 -6.66699 -216.666 -13 -286 -19c-60.667 -5.33301 -141 -13.666 -241 -24.999c-12.667 -33.333 -22.334 -64.666 -29.001 -93.999c-14.667 -53.333 -26.667 -103.333 -36 -150c75.333 8.66699 153.333 17 234 25
c83.333 7.33301 161.333 12.666 234 15.999l-65 -246c-80 -1.33301 -157.5 -5.33301 -232.5 -12s-153.5 -16.334 -235.5 -29.001c-16 -36.667 -29.667 -78.334 -41 -125.001c-13.333 -46 -21.666 -86.333 -24.999 -121c84 10.667 172.667 20.334 266 29.001
c94.667 8 182.667 13.667 264 17l-66 -245c-146.667 -7.33301 -287.334 -16.666 -422.001 -27.999c-134 -12 -276.667 -27.333 -428 -46l77 330c-72.667 -104 -163.334 -189 -272.001 -255c-114.667 -71.333 -234 -112.666 -358 -123.999c-176 -14.667 -299.333 41 -370 167
c-64 110.667 -75.333 242.667 -34 396c42.667 158 129 300.333 259 427c146.667 144 311.667 224 495 240c161.333 14 284.666 -15 369.999 -87l26 121c243.333 12.667 457.666 27 642.999 43c117.333 10 235.333 22 354 36zM1674 1289l-23.999 0.000976562l11 -24l-105 -70
c25.333 -34.667 43.666 -71.334 54.999 -110.001c22.667 76.667 43.667 144.667 63 204zM1384 1106c-35.333 83.333 -117.667 119 -247 107c-100.667 -8.66699 -188.334 -58 -263.001 -148c-61.333 -70.667 -104 -151.334 -128 -242.001
c-25.333 -91.333 -27.666 -167.666 -6.99902 -228.999c27.333 -78.667 90.333 -113.334 189 -104.001c90 6.66699 172 48 246 124c64 67.333 106.667 140.333 128 219c22 80.667 13 147.334 -27 200.001z" />
    <glyph glyph-name="Scaron" unicode="&#x160;" horiz-adv-x="1241" 
d="M1461 1797l-311 -222l-225 -15l-213 160l263 33l104 -60l134 85zM1487 1476l-112.998 -329.003l-304 -34c-22.667 -2.66699 -46 -13.667 -70 -33s-38.333 -38.666 -43 -57.999c-5.33301 -19.333 9.66699 -71.666 45 -156.999c44 -114.667 73 -198.667 87 -252
c29.333 -108 33.333 -199.667 12 -275c-11.333 -42 -28.333 -80.667 -51 -116c-73.333 -109.333 -210.666 -198.666 -411.999 -267.999c-154.667 -53.333 -317.334 -87.333 -488.001 -102l41 353c135.333 18 245.666 41.333 330.999 70c68.667 24 108.667 58.667 120 104
c10 38.667 -0.333008 104.667 -31 198l-89 217c-36 94 -45.667 170.667 -29 230c19.333 76 66.833 150.833 142.5 224.5s160.167 129.167 253.5 166.5c74 28 169 47.333 285 58c103.333 9.33301 207.666 10.333 312.999 3z" />
    <glyph glyph-name="scaron" unicode="&#x161;" horiz-adv-x="1085" 
d="M1388 1790l-311 -220l-222 -17l-215 160l261 33l106 -60l133 86zM1318 1466l-93 -265.996l-244 -26c-18 -2 -35.833 -11 -53.5 -27s-28.834 -31.333 -33.501 -46c-3.33301 -12.667 12.667 -62.334 48 -149.001c41.333 -100 63 -156.667 65 -170
c21.333 -69.333 24.666 -132 9.99902 -188c-11.333 -44.667 -25 -79.334 -41 -104.001c-55.333 -88 -165 -159.333 -329 -214c-126.667 -42.667 -257.667 -70.334 -393 -83.001l34 283c112 14 200.333 32.333 265 55c54.667 19.333 86.667 46.666 96 81.999
c6.66699 26 -2.66602 74.667 -27.999 146l-75 166c-29.333 72 -37.333 131.333 -24 178c14.667 60 52.834 119.5 114.501 178.5s129.5 103.5 203.5 133.5c60 24 137.333 40 232 48c80.667 6.66699 162.667 7.66699 246 3z" />
    <glyph glyph-name="Ydieresis" unicode="&#x178;" horiz-adv-x="1527" 
d="M1623 1727c-10 -40.667 -36.999 -77.334 -80.999 -110.001s-91 -51 -141 -55c-48 -4.66699 -85.833 6 -113.5 32s-35.834 59.667 -24.501 101c10 40.667 36.667 77 80 109s89 50.333 137 55c50 4 88.833 -6.66699 116.5 -32s36.5 -58.666 26.5 -99.999zM1118 1695
c-9.33301 -38 -33.6699 -71.501 -73.0029 -100.501s-81.666 -45.5 -126.999 -49.5s-80.166 5.66699 -104.499 29s-32.166 54 -23.499 92c10.667 37.333 35.5 70.5 74.5 99.5s81.5 45.833 127.5 50.5c44 3.33301 78.5 -6.66699 103.5 -30s32.5 -53.666 22.5 -90.999z
M1785 1446c-179.333 -206 -385.334 -468.335 -618.001 -787.002c-31.333 -43.333 -74 -109.333 -128 -198c-21.333 -43.333 -42.333 -103 -63 -179c-30.667 -115.333 -56.667 -227 -78 -335l-393 -14c22.667 120.667 48.334 233.334 77.001 338.001
c28.667 102.667 52.667 181.334 72 236.001c-43.333 100 -83.333 242.667 -120 428c-32 176.667 -51.333 324.667 -58 444l405 68l25 -281c11.333 -112 34.333 -200.333 69 -265c150 246.667 294.333 436 433 568z" />
    <glyph glyph-name="Zcaron" unicode="&#x17d;" horiz-adv-x="1536" 
d="M1596 1809l-309 -222l-224 -15l-215 160l261 33l108 -60l133 85zM1440 304l-180.002 -309.001c-178 -25.333 -352.667 -46 -524 -62c-189.333 -15.333 -397.666 -27 -624.999 -35c116 166 276 379.667 480 641c-105.333 -11.333 -192.666 -22 -261.999 -32l81 307
c144 18 288.333 34 433 48l244 297c-172.667 -12.667 -387.667 -24 -645 -34l159 298c253.333 11.333 502.333 28 747 50c141.333 12.667 280.333 26.334 417 41.001c-176.667 -194.667 -354.667 -401.667 -534 -621l177 8l-80 -307c-94.667 -2 -210.667 -8.33301 -348 -19
c-99.333 -127.333 -188.666 -247.333 -267.999 -360h7c271.333 24 511.666 53.667 720.999 89z" />
    <glyph glyph-name="zcaron" unicode="&#x17e;" horiz-adv-x="1319" 
d="M1500 1801l-309 -222l-223 -16l-214 161l261 32l106 -60l133 86zM1271 527l-143 -247c-138.667 -19.333 -274.667 -35.333 -408 -48c-156 -13.333 -326 -23 -510 -29c98.667 141.333 226 312.666 382 513.999c-80.667 -9.33301 -150.667 -18.666 -210 -27.999l65 246
l348 40l195 237c-150 -10.667 -322 -20 -516 -28l127 239c225.333 10.667 426 24 602 40c100 8 209.333 19.333 328 34c-133.333 -146.667 -275.666 -313 -426.999 -499c43.333 2.66699 90.666 5 141.999 7l-65 -246c-80.667 -2 -172.667 -6.33301 -276 -13l-216 -290l33 3
c200 17.333 383 40 549 68z" />
    <glyph glyph-name="circumflex" unicode="&#x2c6;" horiz-adv-x="1053" 
d="M1294 1592l-250 -25l-93 65l-142 -81l-258 -13l314 206l226 24z" />
    <glyph glyph-name="caron" unicode="&#x2c7;" horiz-adv-x="1034" 
d="M1341 1785l-310 -220l-224 -15l-215 160l263 33l104 -60l135 85z" />
    <glyph glyph-name="macron" unicode="&#x2c9;" horiz-adv-x="1277" 
d="M1461 1751l-51 -143c-244 -40 -495 -71.333 -753 -94l70 157c290 27.333 534.667 54 734 80z" />
    <glyph glyph-name="ring" unicode="&#x2da;" horiz-adv-x="899" 
d="M1010 1265c-14.667 -54.667 -50.6689 -103.335 -108.002 -146.002s-119 -67 -185 -73c-67.333 -5.33301 -119.166 9 -155.499 43s-47.166 79 -32.499 135c14.667 54.667 50.5 103.334 107.5 146.001s119.167 66.667 186.5 72c66 6 117.167 -8.16699 153.5 -42.5
s47.5 -79.166 33.5 -134.499zM871.998 1249c6 22.667 1.33203 41.5029 -14.001 56.5029s-36.666 20.833 -63.999 17.5c-27.333 -2.66699 -53 -12.834 -77 -30.501s-39 -37.834 -45 -60.501c-6.66699 -21.333 -2 -39.5 14 -54.5s37.667 -21.167 65 -18.5
c26 2 51.333 12.167 76 30.5s39.667 38.166 45 59.499z" />
    <glyph glyph-name="tilde" unicode="&#x2dc;" horiz-adv-x="1446" 
d="M1591 1681c-96 -66 -196.333 -103.667 -301 -113c-40.667 -3.33301 -87.5 9 -140.5 37s-102.833 40.333 -149.5 37c-114 -10.667 -224.333 -52.667 -331 -126l58 209c100 74 205.333 115.667 316 125c51.333 4.66699 103.333 -7 156 -35s103.667 -39.667 153 -35
c103.333 9.33301 201 46.333 293 111z" />
    <glyph glyph-name="endash" unicode="&#x2013;" horiz-adv-x="1149" 
d="M1079 886l-74.001 -226.999c-167.333 -27.333 -330.666 -48 -489.999 -62l-97 -8l94 239c125.333 11.333 314.333 30.666 567 57.999z" />
    <glyph glyph-name="emdash" unicode="&#x2014;" horiz-adv-x="1485" 
d="M1444 939l-75 -229c-349.333 -56 -673 -97 -971 -123l94 239c250 24 567.333 61.667 952 113z" />
    <glyph glyph-name="quoteleft" unicode="&#x2018;" horiz-adv-x="759" 
d="M794 1278l-53 -194l-311 -17l46 203l353 157l-22 -72l-83 -72z" />
    <glyph glyph-name="quoteright" unicode="&#x2019;" horiz-adv-x="749" 
d="M923 1225l-348 -155l19 70l85 72l-73 5l56 194l307 17z" />
    <glyph glyph-name="quotesinglbase" unicode="&#x201a;" horiz-adv-x="749" 
d="M657 229l-350 -156l19 70l85 72l-71 5l54 195l311 17z" />
    <glyph glyph-name="quotedblleft" unicode="&#x201c;" horiz-adv-x="1219" 
d="M1266 1321l-53 -196l-310 -16l46 202l351 157l-20 -72l-85 -72zM867 1302l-55 -194l-310 -17l48 203l351 155l-20 -70l-84 -72z" />
    <glyph glyph-name="quotedblright" unicode="&#x201d;" horiz-adv-x="1213" 
d="M1314 1260l-350 -156l19 70l85 72l-73 5l56 195l308 17zM915 1241l-352 -156l21 70l85 74l-73 3l56 195l307 17z" />
    <glyph glyph-name="quotedblbase" unicode="&#x201e;" horiz-adv-x="1213" 
d="M1094 439l-352 -156l23 70l83 72l-71 5l52 195l311 17zM693 420l-350 -155l21 70l83 73l-72 3l57 195l309 17z" />
    <glyph glyph-name="dagger" unicode="&#x2020;" horiz-adv-x="1640" 
d="M1650 1099l-73.001 -210.002c-64 -13.333 -185.667 -31.333 -365 -54c-114 -423.333 -192.667 -750.666 -236 -981.999l-397 -34c47.333 256 123 579 227 969c-75.333 -7.33301 -121.666 -11.666 -138.999 -12.999c-69.333 -6.66699 -144.333 -12 -225 -16l89 222l201 16
c4.66699 0 48 4 130 12c42 146.667 90.333 296.667 145 450l394 14c-53.333 -154 -97 -294.667 -131 -422c84 9.33301 210.667 25.333 380 48z" />
    <glyph glyph-name="daggerdbl" unicode="&#x2021;" horiz-adv-x="1364" 
d="M1396 637l-77.001 -224.002c-93.333 -9.33301 -212.666 -22.333 -357.999 -39c-46.667 -188 -86 -365 -118 -531l-398 -36c33.333 173.333 70.333 346.333 111 519l-401 -48l111 225c49.333 4.66699 163.666 17.334 342.999 38.001
c-5.33301 -17.333 15.667 61.334 63 236.001c-77.333 -8 -123.333 -12.667 -138 -14c-69.333 -6 -144.333 -11 -225 -15l89 223c95.333 6 162.333 10.667 201 14c-3.33301 0 40.334 4 131.001 12c42.667 146.667 90.667 296.667 144 450l394 14
c-52 -153.333 -95.667 -294 -131 -422c84 9.33301 210.667 25.333 380 48l-73 -210c-61.333 -13.333 -183 -31.333 -365 -54l-64 -234z" />
    <glyph glyph-name="bullet" unicode="&#x2022;" horiz-adv-x="1562" 
d="M1464 855c-30.667 -112.667 -103.667 -213 -219 -301s-241.333 -138.333 -378 -151c-135.333 -11.333 -240.333 18.834 -315 90.501s-96.667 163.834 -66 276.501c30 111.333 103.333 211.666 220 300.999s243 139.666 379 150.999
c136.667 12.667 241.5 -17.5 314.5 -90.5s94.5 -165.167 64.5 -276.5z" />
    <glyph glyph-name="ellipsis" unicode="&#x2026;" horiz-adv-x="1715" 
d="M1603 500c-12 -42 -40.167 -78.998 -84.5 -110.998s-92 -50.167 -143 -54.5s-91.667 6.16699 -122 31.5s-39.833 59.333 -28.5 102c11.333 40.667 39.833 77 85.5 109s94.167 50.167 145.5 54.5s91.5 -6.33398 120.5 -32.001s37.833 -58.834 26.5 -99.501zM1118 391.002
c-11.333 -42 -39.5 -79 -84.5 -111s-93.167 -50.333 -144.5 -55c-50 -4.66699 -90 5.83301 -120 31.5s-40 59.5 -30 101.5c11.333 41.333 40 77.833 86 109.5s94.667 49.834 146 54.501c50 4.66699 89.5 -5.83301 118.5 -31.5s38.5 -58.834 28.5 -99.501zM655 374.002
c-10 -42 -37.5 -79 -82.5 -111s-93 -50.333 -144 -55s-91.667 5.83301 -122 31.5s-39.833 59.5 -28.5 101.5c11.333 41.333 39.833 77.833 85.5 109.5s94 49.834 145 54.501s91 -5.83301 120 -31.5s37.833 -58.834 26.5 -99.501z" />
    <glyph glyph-name="perthousand" unicode="&#x2030;" horiz-adv-x="2661" 
d="M2579 406c-22.667 -88.667 -85.334 -168.832 -188 -240.499c-102.667 -71.667 -208.334 -112.167 -317.001 -121.5c-88 -8 -161 6.33301 -219 43s-93.333 88 -106 154c-47.333 -70.667 -114 -130.834 -200 -180.501s-173.333 -77.834 -262 -84.501
c-115.333 -10 -203.666 16.833 -264.999 80.5s-79 143.834 -53 240.501l17 46l-346 -413l-271 -17l771 949c-101.333 -69.333 -205.333 -108.666 -312 -117.999c-116 -10 -204.833 16.833 -266.5 80.5s-79.167 143.834 -52.5 240.501c24.667 98 86.167 185.667 184.5 263
s206.833 121 325.5 131c164.667 14.667 269.334 -36.333 314.001 -153l-27 -12c39.333 -54 47.666 -119.667 24.999 -197l340 420l247 -53l-737 -885c93.333 66 192.333 103.333 297 112c166 14.667 271.333 -36.333 316 -153l-28 -14c14 -18 23.667 -38 29 -60
c44.667 78.667 110.5 145.667 197.5 201s177.833 86.666 272.5 93.999c166 15.333 271 -35.667 315 -153l-27 -12c36.667 -52.667 45.334 -115.334 26 -188.001zM2326 401.002c14 56 -3.66699 92.999 -53 110.999l31 15c-21.333 18.667 -52.666 26.334 -94 23.001
c-46.667 -4 -88.667 -21.833 -126 -53.5s-62 -67.5 -74 -107.5c-10 -38.667 -3.83301 -71.667 18.5 -99s56.833 -39.333 103.5 -36c42 4.66699 82.333 21.5 121 50.5s63 61.167 73 96.5zM1079 1101c14.667 55.333 -3.66602 92.3359 -54.999 111.003l34 15
c-24 18 -56.333 25.333 -97 22c-45.333 -4.66699 -87.166 -22.834 -125.499 -54.501s-62.5 -67.5 -72.5 -107.5c-10 -38.667 -4.33301 -71.334 17 -98.001s55.333 -38.334 102 -35.001c43.333 4.66699 84.666 21.5 123.999 50.5s63.666 61.167 72.999 96.5zM1538 331.004
c14.667 56.667 -2.33203 94.333 -50.999 113l32 15c-22.667 18 -54.667 25.333 -96 22c-46.667 -4.66699 -88.667 -22.834 -126 -54.501s-61.666 -67.5 -72.999 -107.5c-10.667 -38.667 -4.83398 -71.667 17.499 -99s56.166 -38.666 101.499 -33.999
c43.333 3.33301 84.333 19.5 123 48.5s62.667 61.167 72 96.5z" />
    <glyph glyph-name="guilsinglleft" unicode="&#x2039;" horiz-adv-x="1022" 
d="M857 309l-398 -34l-145 442l379 490l394 13l-377 -474z" />
    <glyph glyph-name="guilsinglright" unicode="&#x203a;" horiz-adv-x="1027" 
d="M1082 783l-393 -488l-397 -34l394 483l-136 430l399 34z" />
    <glyph glyph-name="Euro" unicode="&#x20ac;" horiz-adv-x="2002" 
d="M1900 510c-72 -146.667 -184 -270.332 -336 -370.999s-317.333 -159 -496 -175c-148.667 -12.667 -268.667 18.666 -360 93.999c-79.333 66 -128.666 160 -147.999 282c-158 -16 -281.667 -29.667 -371 -41l111 225l258 27c6 41.333 14.667 85.333 26 132
c-60.667 -4.66699 -125.667 -8.66699 -195 -12l87 222c91.333 5.33301 158.666 10.333 201.999 15c86 156 196.667 286.333 332 391c156 120.667 322.667 188.334 500 203.001c294 26 480.667 -62.333 560 -265l-358 -155c-54.667 74 -145.667 105.333 -273 94
c-141.333 -12.667 -262.666 -88.334 -363.999 -227.001c146.667 17.333 257.667 31.666 333 42.999l-72 -210c-84 -19.333 -209 -38.666 -375 -57.999c-6 -18.667 -10.667 -33.667 -14 -45c-6.66699 -28 -13 -58 -19 -90l304 34l-77 -222l-213 -22
c29.333 -83.333 97 -120.333 203 -111c92 8 177.667 40.5 257 97.5s134.666 123.5 165.999 199.5z" />
    <glyph glyph-name="trademark" unicode="&#x2122;" horiz-adv-x="1642" 
d="M1734 1456c-25.333 -30 -42.332 -55.666 -50.999 -76.999c-2.66699 -6.66699 -8.33398 -25.334 -17.001 -56.001c-10.667 -40 -31.667 -113.333 -63 -220l-64 -219l-158 -15c5.33301 24.667 11 48.334 17 71.001c12.667 49.333 32.334 114.333 59.001 195l-221 -246
l-116 225c-4.66699 -14.667 -10.334 -35 -17.001 -61c-10.667 -28.667 -17.667 -49.667 -21 -63c-12.667 -50 -24 -100 -34 -150l-159 -14c22.667 109.333 46.667 209 72 299c12.667 47.333 32 112.666 58 195.999l-149 -7l-42 -143l-51 -195
c-8 -29.333 -19.667 -76 -35 -140l-158 -13c16 79.333 37 167.333 63 264l63 219l-159 -7l40 123l486 22l-14 -45l96 50l131 -314l285 352z" />
    <glyph glyph-name=".null" horiz-adv-x="0" 
 />
    <glyph glyph-name="nonmarkingreturn" horiz-adv-x="1024" 
 />
    </font>
</defs>
</svg>
